<svg  viewBox="0 0 24 24" fill="none" xmlns="http://www.w3.org/2000/svg">
<path d="M12.6761 12C12.6761 14.3989 12.0175 16.5483 10.9788 18.0838C9.93816 19.6222 8.5534 20.5 7.08803 20.5C5.62266 20.5 4.2379 19.6222 3.19729 18.0838C2.15861 16.5483 1.5 14.3989 1.5 12C1.5 9.60114 2.15861 7.45168 3.19729 5.91619C4.2379 4.37784 5.62266 3.5 7.08803 3.5C8.5534 3.5 9.93816 4.37784 10.9788 5.91619C12.0175 7.45168 12.6761 9.60114 12.6761 12Z" stroke="white"/>
<path d="M23.4996 12C23.4996 14.3989 22.8409 16.5483 21.8023 18.0838C20.7616 19.6222 19.3769 20.5 17.9115 20.5C16.4461 20.5 15.0614 19.6222 14.0208 18.0838C12.9821 16.5483 12.3235 14.3989 12.3235 12C12.3235 9.60114 12.9821 7.45168 14.0208 5.91619C15.0614 4.37784 16.4461 3.5 17.9115 3.5C19.3769 3.5 20.7616 4.37784 21.8023 5.91619C22.8409 7.45168 23.4996 9.60114 23.4996 12Z" stroke="white"/>
<ellipse cx="9.79435" cy="12" rx="3.38224" ry="5.625" fill="white"/>
<ellipse cx="20.6176" cy="12" rx="3.38224" ry="5.625" fill="white"/>
</svg>
