<svg xmlns="http://www.w3.org/2000/svg" viewBox="0 0 140 40"><defs><style>.cls-1{fill:#8000ff;}.cls-2{fill:#fff;}</style></defs><g id="Layer_2" data-name="Layer 2"><g id="Layer_6" data-name="Layer 6"><path class="cls-1" d="M36.57,15.71h-2V12.29A12.28,12.28,0,0,0,22.29,0H18.86a3.43,3.43,0,0,0-3.43,3.43V34.29A5.71,5.71,0,0,0,21.14,40H36.57A12.14,12.14,0,0,0,48.71,27.86h0A12.14,12.14,0,0,0,36.57,15.71Z"/><circle class="cls-1" cx="6.29" cy="6.29" r="6.29"/><g id="eye_ver.2_original" data-name="eye ver.2_original"><path class="cls-1" d="M42,27.28v1.15a8.33,8.33,0,0,1-1.3,4.5,2.7,2.7,0,0,1-2.14,1.38h-.29c-2,0-3.44-3.15-3.44-5.88V27.28c0-2.72,1.43-5.88,3.44-5.88h.29a2.72,2.72,0,0,1,2.14,1.38A8.33,8.33,0,0,1,42,27.28Z"/><path class="cls-2" d="M40.28,33a1,1,0,0,0,.42-.09,2.7,2.7,0,0,1-2.14,1.38h-.29c-2,0-3.44-3.15-3.44-5.88V27.28c0-2.72,1.43-5.88,3.44-5.88h.29a2.72,2.72,0,0,1,2.14,1.38,1.17,1.17,0,0,0-.42-.09c-1.72,0-2.44,2.44-2.44,4.72v.89C37.84,30.58,38.56,33,40.28,33Z"/></g><g id="eye_ver.2_original-2" data-name="eye ver.2_original"><path class="cls-1" d="M36,27.26v1.19a8.65,8.65,0,0,1-1.35,4.68,2.83,2.83,0,0,1-2.23,1.44h-.3c-2.09,0-3.58-3.28-3.58-6.12V27.26c0-2.83,1.49-6.11,3.58-6.11h.3a2.82,2.82,0,0,1,2.23,1.43A8.71,8.71,0,0,1,36,27.26Z"/><path class="cls-2" d="M34.24,33.23a1.09,1.09,0,0,0,.44-.1,2.83,2.83,0,0,1-2.23,1.44h-.3c-2.09,0-3.58-3.28-3.58-6.12V27.26c0-2.83,1.49-6.11,3.58-6.11h.3a2.82,2.82,0,0,1,2.23,1.43,1.08,1.08,0,0,0-.44-.09c-1.79,0-2.54,2.53-2.54,4.9v.93C31.7,30.69,32.45,33.23,34.24,33.23Z"/></g><path class="cls-1" d="M60.18,11.35l6.44-1.58a4.65,4.65,0,0,1,1.24-.14,4.5,4.5,0,0,1,2.17.53,4.11,4.11,0,0,1,1.55,1.52,4.25,4.25,0,0,1,.58,2.24,6.33,6.33,0,0,1-1,3.06,5.55,5.55,0,0,1,2,1.86A4.74,4.74,0,0,1,74,21.5a5.58,5.58,0,0,1-.85,3,6.55,6.55,0,0,1-2.22,2.22,5.8,5.8,0,0,1-2.92.86H62.21A2.07,2.07,0,0,1,60.77,27a1.73,1.73,0,0,1-.59-1.32Zm6.44,5.2a2,2,0,0,0,1.64-1.92,1.42,1.42,0,0,0-.49-1.12,1.32,1.32,0,0,0-1.15-.27l-3,.6V17ZM67.78,24a2.32,2.32,0,0,0,1.33-.75,2,2,0,0,0,.53-1.4,1.88,1.88,0,0,0-1.86-1.92l-4.18.45v3.84l4.18-.2Z"/><path class="cls-1" d="M76,17.71a6.47,6.47,0,0,1,2.13-2.49A7.26,7.26,0,0,1,81.23,14a6.77,6.77,0,0,1,1-.09,5.93,5.93,0,0,1,3,.74,5.19,5.19,0,0,1,2.08,2.17,7.47,7.47,0,0,1,.76,3.54,8,8,0,0,1-.91,3.94,6.33,6.33,0,0,1-2.49,2.51,7,7,0,0,1-3.44.87A6.27,6.27,0,0,1,78.15,27,5.36,5.36,0,0,1,76,24.78a7.21,7.21,0,0,1-.78-3.48A7.9,7.9,0,0,1,76,17.71Zm3.39.71a3.91,3.91,0,0,0-.86,2.65,3.58,3.58,0,0,0,.72,2.38,2.34,2.34,0,0,0,1.85.85,2.7,2.7,0,0,0,2.12-1,3.86,3.86,0,0,0,.85-2.66,3.58,3.58,0,0,0-.72-2.4,2.28,2.28,0,0,0-1.82-.85A2.73,2.73,0,0,0,79.41,18.42Z"/><path class="cls-1" d="M93.67,10.81V19L97.85,14l5.35-.65-6.93,7.55,6.93,6.7H97.85L93.67,23v2.88a1.59,1.59,0,0,1-.49,1.19,1.66,1.66,0,0,1-1.2.48H90.34V11.35Z"/><path class="cls-1" d="M102.41,29.84a4.81,4.81,0,0,0,1.52.22,1.16,1.16,0,0,0,.71-.14,2.3,2.3,0,0,0,.68-1,4.12,4.12,0,0,0,.25-1.49V16a1.76,1.76,0,0,1,.47-1.22,1.69,1.69,0,0,1,1.14-.56l2.09-.23V27.32a8.35,8.35,0,0,1-.52,3.12,5.2,5.2,0,0,1-1.65,2.2,3.85,3.85,0,0,1-2.35.67,3.18,3.18,0,0,1-.68-.05,14.3,14.3,0,0,1-2.29-.77Zm6.75-22.57a2,2,0,0,1,.57,1.45A2.65,2.65,0,0,1,109,10.6a2.4,2.4,0,0,1-1.81.81,1.92,1.92,0,0,1-1.45-.6,2,2,0,0,1-.58-1.47,2.57,2.57,0,0,1,.79-1.85,2.49,2.49,0,0,1,1.84-.8A1.89,1.89,0,0,1,109.16,7.27Z"/><path class="cls-1" d="M114.08,20.25a10.18,10.18,0,0,1,2.54-.84,8.41,8.41,0,0,1,2-.23,16.53,16.53,0,0,1,2,.14,4.15,4.15,0,0,0-.71-1.89,1.76,1.76,0,0,0-1.67-.54,4.06,4.06,0,0,0-1.4.41,10.6,10.6,0,0,0-1.07.62l-.61.41a1.73,1.73,0,0,1-.76.2,1.39,1.39,0,0,1-1-.42l-.93-.94a8.91,8.91,0,0,1,1-1,10.27,10.27,0,0,1,2-1.35,8.7,8.7,0,0,1,2.81-.94,8.34,8.34,0,0,1,1.08-.08,4,4,0,0,1,3.54,1.81,7.69,7.69,0,0,1,1.23,4.44v7.46l-3.39,0V25.91a3.13,3.13,0,0,1-1.22,1.18,5.07,5.07,0,0,1-1.22.5,7.78,7.78,0,0,1-1.57.13,8.65,8.65,0,0,1-2.19-.26,3,3,0,0,1-1.43-.73,4.38,4.38,0,0,1-.79-1.29,4,4,0,0,1-.31-1.57A4.14,4.14,0,0,1,112.5,22,3.86,3.86,0,0,1,114.08,20.25Zm1.1,3.42a1.17,1.17,0,0,0,0,.29,1.38,1.38,0,0,0,1.47.9,5.28,5.28,0,0,0,2.46-.73c.45-.25,1-.58,1.61-1v-1.3a18.94,18.94,0,0,0-3.25.28C116,22.42,115.18,22.94,115.18,23.67Z"/><path class="cls-1" d="M130.47,10.81V19L134.66,14,140,13.3l-6.93,7.55,6.93,6.7h-5.34L130.47,23v2.88a1.59,1.59,0,0,1-.49,1.19,1.66,1.66,0,0,1-1.2.48h-1.64V11.35Z"/></g></g></svg>