<svg xmlns="http://www.w3.org/2000/svg" viewBox="0 0 48.71 40"><defs><style>.cls-1{fill:#8000ff;}.cls-2{fill:#fff;}</style></defs><g id="Layer_2" data-name="Layer 2"><g id="Layer_6" data-name="Layer 6"><path class="cls-1" d="M36.57,15.71h-2V12.29A12.28,12.28,0,0,0,22.29,0H18.86a3.43,3.43,0,0,0-3.43,3.43V34.29A5.71,5.71,0,0,0,21.14,40H36.57A12.14,12.14,0,0,0,48.71,27.86h0A12.14,12.14,0,0,0,36.57,15.71Z"/><circle class="cls-1" cx="6.29" cy="6.29" r="6.29"/><g id="eye_ver.2_original" data-name="eye ver.2_original"><path class="cls-1" d="M42,27.28v1.15a8.33,8.33,0,0,1-1.3,4.5,2.7,2.7,0,0,1-2.14,1.38h-.29c-2,0-3.44-3.15-3.44-5.88V27.28c0-2.72,1.43-5.88,3.44-5.88h.29a2.72,2.72,0,0,1,2.14,1.38A8.33,8.33,0,0,1,42,27.28Z"/><path class="cls-2" d="M40.28,33a1,1,0,0,0,.42-.09,2.7,2.7,0,0,1-2.14,1.38h-.29c-2,0-3.44-3.15-3.44-5.88V27.28c0-2.72,1.43-5.88,3.44-5.88h.29a2.72,2.72,0,0,1,2.14,1.38,1.17,1.17,0,0,0-.42-.09c-1.72,0-2.44,2.44-2.44,4.72v.89C37.84,30.58,38.56,33,40.28,33Z"/></g><g id="eye_ver.2_original-2" data-name="eye ver.2_original"><path class="cls-1" d="M36,27.26v1.19a8.65,8.65,0,0,1-1.35,4.68,2.83,2.83,0,0,1-2.23,1.44h-.3c-2.09,0-3.58-3.28-3.58-6.12V27.26c0-2.83,1.49-6.11,3.58-6.11h.3a2.82,2.82,0,0,1,2.23,1.43A8.71,8.71,0,0,1,36,27.26Z"/><path class="cls-2" d="M34.24,33.23a1.09,1.09,0,0,0,.44-.1,2.83,2.83,0,0,1-2.23,1.44h-.3c-2.09,0-3.58-3.28-3.58-6.12V27.26c0-2.83,1.49-6.11,3.58-6.11h.3a2.82,2.82,0,0,1,2.23,1.43,1.08,1.08,0,0,0-.44-.09c-1.79,0-2.54,2.53-2.54,4.9v.93C31.7,30.69,32.45,33.23,34.24,33.23Z"/></g></g></g></svg>