<?xml version="1.0" standalone="no"?>
<!DOCTYPE svg PUBLIC "-//W3C//DTD SVG 20010904//EN"
 "http://www.w3.org/TR/2001/REC-SVG-20010904/DTD/svg10.dtd">
<svg version="1.0" xmlns="http://www.w3.org/2000/svg"
 width="863.000000pt" height="616.000000pt" viewBox="0 0 863.000000 616.000000"
 preserveAspectRatio="xMidYMid meet">

<g transform="translate(0.000000,616.000000) scale(0.100000,-0.100000)"
fill="#000000" stroke="none">
<path d="M1790 6080 c-1310 -5 -1315 -5 -1377 -26 -86 -30 -141 -64 -195 -122
-53 -56 -81 -106 -105 -189 -16 -53 -18 -155 -21 -1233 -1 -646 -1 -1255 0
-1353 l3 -179 27 21 c71 56 -57 53 2041 51 2122 -2 1976 3 2046 -63 62 -59 74
-103 81 -279 l5 -156 68 -77 c64 -73 84 -111 52 -99 -14 6 -21 -16 -16 -54 2
-8 -9 -31 -23 -52 -14 -21 -28 -50 -32 -64 -3 -15 -11 -29 -17 -33 -7 -4 -8 0
-3 13 16 43 17 70 1 89 -15 18 -16 18 -11 2 8 -25 -4 -44 -15 -26 -5 8 -9
-290 -9 -683 l0 -698 1347 -2 c1066 -2 1347 -6 1351 -15 3 -10 -271 -13 -1347
-13 l-1351 0 0 -285 c0 -303 -6 -362 -46 -420 -13 -20 -24 -39 -24 -43 0 -12
3880 -5 3946 7 186 35 336 186 363 366 6 34 11 1170 12 2640 3 2403 2 2584
-14 2638 -59 201 -191 312 -394 333 -80 9 -4456 11 -6343 4z m5145 -430 c4 -6
10 -8 15 -5 8 5 27 -13 30 -30 2 -5 5 -16 8 -24 3 -7 0 -16 -7 -20 -7 -4 -11
-14 -9 -21 2 -8 -6 -16 -17 -18 -11 -2 -23 -9 -27 -16 -5 -8 -11 -7 -20 2 -6
6 -20 12 -30 12 -11 0 -18 7 -18 19 0 11 -5 23 -11 27 -8 4 -8 9 0 17 6 6 11
19 11 29 0 11 7 18 20 18 11 0 20 5 20 10 0 13 27 13 35 0z m358 -10 c-19 -8
-23 -17 -23 -55 0 -33 4 -45 15 -45 8 0 15 -5 15 -11 0 -6 -8 -9 -17 -7 -14 2
-19 15 -21 52 -4 62 2 76 30 75 l23 0 -22 -9z m81 -42 c10 -17 -7 -48 -26 -48
-6 0 -5 7 2 15 11 13 7 15 -21 17 l-34 1 33 4 c29 4 32 6 20 20 -11 14 -11 15
1 12 8 -3 19 -12 25 -21z m63 -360 c-2 -13 -4 -5 -4 17 -1 22 1 32 4 23 2 -10
2 -28 0 -40z m-149 35 c-10 -2 -18 -9 -18 -14 0 -5 -4 -9 -10 -9 -5 0 -10 7
-10 15 0 10 9 15 28 14 16 -1 20 -3 10 -6z m92 -23 c0 -20 -5 -30 -15 -30 -8
0 -15 5 -15 10 0 6 -6 9 -12 8 -7 -2 -14 7 -16 20 -3 19 1 22 27 22 28 0 31
-3 31 -30z m40 3 c0 -14 -6 -23 -15 -23 -9 0 -15 9 -15 23 0 14 6 24 15 24 9
0 15 -10 15 -24z m90 -3 c0 -25 -4 -30 -25 -30 -21 0 -25 5 -25 30 0 25 4 30
25 30 21 0 25 -5 25 -30z m167 -2 c-3 -8 -6 -5 -6 6 -1 11 2 17 5 13 3 -3 4
-12 1 -19z m70 0 c-3 -8 -6 -5 -6 6 -1 11 2 17 5 13 3 -3 4 -12 1 -19z m73 7
c0 -8 -2 -15 -4 -15 -2 0 -6 7 -10 15 -3 8 -1 15 4 15 6 0 10 -7 10 -15z m70
0 c0 -8 -4 -15 -10 -15 -5 0 -10 7 -10 15 0 8 5 15 10 15 6 0 10 -7 10 -15z
m57 -7 c-3 -8 -6 -5 -6 6 -1 11 2 17 5 13 3 -3 4 -12 1 -19z m-653 1 c-3 -6 0
-15 7 -20 10 -6 3 -9 -20 -9 l-34 0 23 20 c26 22 35 26 24 9z m-14 -136 c0 31
30 20 30 -12 0 -25 -3 -28 -22 -23 -25 6 -38 20 -38 41 0 11 4 9 15 -5 13 -17
14 -17 15 -1z m90 -12 c0 -3 -11 -6 -24 -6 -19 0 -21 3 -12 17 7 13 14 14 23
6 7 -6 13 -13 13 -17z m67 9 c-1 -14 -8 -20 -24 -20 -16 0 -23 6 -23 20 0 15
7 20 24 20 19 0 24 -5 23 -20z m44 8 c0 -10 2 -10 6 0 10 25 23 11 23 -25 0
-27 -3 -34 -11 -26 -6 6 -44 10 -92 8 -46 -1 -54 0 -20 2 57 4 63 6 69 28 6
26 23 34 25 13z m99 -21 c0 -29 -3 -33 -22 -32 -15 1 -22 8 -22 19 1 9 -2 16
-7 16 -5 0 -9 7 -9 15 0 10 10 15 30 15 27 0 30 -3 30 -33z m170 -4 c0 -19
-13 -9 -16 12 -1 8 2 13 7 9 5 -3 9 -12 9 -21z m70 6 c0 -5 -4 -9 -10 -9 -5 0
-10 7 -10 16 0 8 5 12 10 9 6 -3 10 -10 10 -16z m57 -1 c-3 -8 -6 -5 -6 6 -1
11 2 17 5 13 3 -3 4 -12 1 -19z m70 0 c-3 -8 -6 -5 -6 6 -1 11 2 17 5 13 3 -3
4 -12 1 -19z m70 -10 c-3 -7 -5 -2 -5 12 0 14 2 19 5 13 2 -7 2 -19 0 -25z
m73 10 c0 -12 -3 -18 -7 -14 -11 10 -12 36 -2 36 5 0 9 -10 9 -22z m70 -4 c0
-8 -4 -12 -10 -9 -5 3 -10 13 -10 21 0 8 5 12 10 9 6 -3 10 -13 10 -21z m70 0
c0 -8 -4 -12 -10 -9 -5 3 -10 13 -10 21 0 8 5 12 10 9 6 -3 10 -13 10 -21z
m-950 -126 c0 -10 2 -10 9 0 13 21 22 -13 11 -40 -6 -16 -9 -18 -9 -6 -1 11
-7 15 -21 11 -15 -4 -20 0 -20 14 0 11 3 23 7 26 10 11 23 8 23 -5z m90 -8 c0
-15 -7 -20 -25 -20 -27 0 -28 1 -19 24 9 24 44 20 44 -4z m50 -5 c0 -15 -6
-25 -14 -25 -16 0 -25 19 -18 38 8 22 32 13 32 -13z m22 -21 c-6 -35 -12 -29
-12 14 0 23 3 32 9 24 4 -7 6 -24 3 -38z m40 37 c-11 -7 -11 -9 2 -14 9 -4 16
1 19 11 3 9 5 0 6 -21 1 -34 -2 -38 -20 -35 -29 4 -39 68 -11 68 13 0 14 -2 4
-9z m95 -11 c-1 -11 -6 -20 -12 -20 -5 0 -3 -5 5 -10 11 -7 6 -10 -20 -9 -19
0 -30 3 -24 5 6 3 9 16 6 29 -4 21 -1 25 21 25 20 0 25 -5 24 -20z m243 -11
c0 -5 -9 -9 -20 -9 -17 0 -19 2 -8 14 13 14 28 12 28 -5z m60 6 c0 -9 -9 -15
-22 -14 -17 1 -19 2 -5 6 9 2 17 9 17 14 0 5 2 9 5 9 3 0 5 -7 5 -15z m70 -4
c0 -15 -5 -18 -22 -13 -19 5 -20 7 -5 10 9 2 17 8 17 13 0 5 2 9 5 9 3 0 5 -9
5 -19z m70 0 c0 -15 -5 -18 -22 -13 -19 5 -20 7 -5 10 9 2 17 8 17 13 0 5 2 9
5 9 3 0 5 -9 5 -19z m-270 -5 c0 -10 -7 -12 -22 -8 -21 5 -21 6 -2 13 10 4 20
8 22 8 1 1 2 -5 2 -13z m-382 -23 c-10 -2 -26 -2 -35 0 -10 3 -2 5 17 5 19 0
27 -2 18 -5z m-6283 -18 c47 -15 105 -58 105 -78 0 -12 -140 -1 -190 15 -39
12 -92 56 -84 70 8 13 115 9 169 -7z m2180 -15 c-3 -5 -10 -10 -16 -10 -5 0
-9 5 -9 10 0 6 7 10 16 10 8 0 12 -4 9 -10z m4045 -97 c0 -30 -1 -31 -25 -20
-44 21 -44 56 0 53 21 -1 25 -6 25 -33z m67 3 c-2 -23 -9 -32 -25 -34 -12 -2
-22 1 -22 7 0 6 8 8 18 5 9 -2 7 1 -5 7 -35 18 -30 48 7 47 28 -1 30 -4 27
-32z m62 -6 c-1 -22 -3 -27 -6 -13 -3 13 -10 20 -18 17 -15 -6 -29 11 -20 25
3 6 14 9 25 8 16 -1 20 -8 19 -37z m90 3 c-1 -24 -3 -29 -6 -15 -2 12 -9 22
-14 22 -8 0 10 28 19 30 1 0 1 -17 1 -37z m68 20 c4 -9 1 -19 -5 -21 -7 -2
-12 -10 -12 -18 0 -8 -4 -14 -10 -14 -5 0 -10 6 -10 14 0 8 -6 17 -12 19 -7 3
-3 6 10 6 26 1 30 18 5 24 -13 4 -12 5 5 6 13 1 25 -6 29 -16z m73 -21 c0 -28
-3 -33 -12 -24 -7 7 -20 12 -30 12 -20 0 -24 15 -8 25 6 4 8 10 5 14 -2 5 7 9
20 9 22 0 25 -5 25 -36z m-180 14 c0 -8 6 -17 13 -19 6 -3 2 -6 -10 -6 -17 -1
-23 5 -23 19 0 11 5 20 10 20 6 0 10 -6 10 -14z m747 -18 c-3 -7 -5 -2 -5 12
0 14 2 19 5 13 2 -7 2 -19 0 -25z m-340 0 c-3 -8 -6 -5 -6 6 -1 11 2 17 5 13
3 -3 4 -12 1 -19z m73 6 c0 -8 -5 -12 -10 -9 -6 4 -8 11 -5 16 9 14 15 11 15
-7z m70 0 c0 -8 -5 -12 -10 -9 -6 4 -8 11 -5 16 9 14 15 11 15 -7z m70 0 c0
-8 -4 -12 -10 -9 -5 3 -10 10 -10 16 0 5 5 9 10 9 6 0 10 -7 10 -16z m-693
-20 c-3 -3 -12 -4 -19 -1 -8 3 -5 6 6 6 11 1 17 -2 13 -5z m-107 -133 c0 -26
-3 -31 -12 -23 -7 6 -17 12 -23 14 -5 1 -9 9 -9 15 1 7 -2 10 -7 7 -10 -6 -12
9 -3 18 3 3 16 5 30 4 20 -1 24 -6 24 -35z m67 5 c-2 -23 -9 -32 -25 -34 -12
-2 -22 1 -22 7 0 6 8 8 18 5 9 -2 7 1 -5 7 -37 20 -30 47 13 47 22 0 24 -4 21
-32z m62 -6 c-1 -21 -3 -26 -6 -14 -3 16 -9 20 -24 17 -12 -4 -19 0 -19 9 0
20 5 24 30 24 17 0 20 -6 19 -36z m91 0 c0 -19 -4 -30 -8 -23 -4 6 -16 11 -27
10 -12 -1 -21 5 -23 17 -4 21 8 32 38 32 16 0 20 -7 20 -36z m65 15 c0 -11 -6
-26 -12 -33 -11 -11 -16 -11 -29 2 -9 9 -11 16 -4 16 6 0 8 5 5 10 -9 15 5 32
23 28 10 -2 17 -12 17 -23z m175 -11 c0 -8 -5 -12 -10 -9 -6 4 -8 11 -5 16 9
14 15 11 15 -7z m70 0 c0 -8 -4 -12 -10 -9 -5 3 -10 10 -10 16 0 5 5 9 10 9 6
0 10 -7 10 -16z m127 -6 c-3 -8 -6 -5 -6 6 -1 11 2 17 5 13 3 -3 4 -12 1 -19z
m70 0 c-3 -8 -6 -5 -6 6 -1 11 2 17 5 13 3 -3 4 -12 1 -19z m73 6 c0 -8 -5
-12 -10 -9 -6 4 -8 11 -5 16 9 14 15 11 15 -7z m70 0 c0 -8 -4 -12 -10 -9 -5
3 -10 10 -10 16 0 5 5 9 10 9 6 0 10 -7 10 -16z m70 0 c0 -8 -4 -12 -10 -9 -5
3 -10 10 -10 16 0 5 5 9 10 9 6 0 10 -7 10 -16z m-833 -20 c-3 -3 -12 -4 -19
-1 -8 3 -5 6 6 6 11 1 17 -2 13 -5z m-37 -129 c0 -34 -8 -43 -24 -27 -4 4 -13
7 -19 7 -7 0 -13 10 -15 22 -3 21 0 22 51 32 4 0 7 -15 7 -34z m57 -17 c-2
-13 -4 -5 -4 17 -1 22 1 32 4 23 2 -10 2 -28 0 -40z m73 15 c0 -28 -3 -33 -25
-33 -22 0 -25 5 -25 33 0 28 3 32 25 32 22 0 25 -4 25 -32z m-225 17 c-18 -8
-18 -9 -2 -9 11 -1 15 -6 11 -12 -3 -6 0 -15 7 -20 10 -6 3 -9 -21 -9 -27 0
-32 3 -20 11 11 8 12 12 3 16 -25 9 -14 33 15 32 24 0 25 -1 7 -9z m135 -17
c0 -14 -6 -23 -15 -23 -9 0 -15 9 -15 23 0 14 6 24 15 24 9 0 15 -10 15 -24z
m257 -5 c-3 -8 -6 -5 -6 6 -1 11 2 17 5 13 3 -3 4 -12 1 -19z m70 0 c-3 -8 -6
-5 -6 6 -1 11 2 17 5 13 3 -3 4 -12 1 -19z m73 6 c0 -8 -5 -12 -10 -9 -6 4 -8
11 -5 16 9 14 15 11 15 -7z m70 0 c0 -8 -4 -12 -10 -9 -5 3 -10 10 -10 16 0 5
5 9 10 9 6 0 10 -7 10 -16z m64 1 c3 -8 1 -15 -4 -15 -6 0 -10 7 -10 15 0 8 2
15 4 15 2 0 6 -7 10 -15z m-6829 -103 c-8 -8 -13 0 -20 33 l-7 30 16 -29 c9
-16 14 -31 11 -34z m6247 -29 c7 -32 -4 -53 -27 -53 -17 0 -22 5 -20 23 1 12
3 28 4 35 2 19 39 14 43 -5z m137 -20 c0 -29 -2 -33 -8 -18 -7 19 -8 19 -18 0
-10 -17 -11 -17 -17 3 -10 29 1 47 20 31 11 -9 14 -8 14 5 0 9 2 16 5 16 3 0
5 -17 4 -37z m-199 -5 c0 -25 -3 -29 -10 -18 -8 12 -11 13 -19 1 -7 -11 -10
-11 -17 0 -20 33 -15 49 16 49 27 0 30 -3 30 -32z m138 2 c1 -33 -4 -35 -43
-20 -21 8 -25 13 -16 24 6 7 8 16 4 19 -3 4 7 7 24 7 26 0 30 -3 31 -30z m229
-2 c-3 -8 -6 -5 -6 6 -1 11 2 17 5 13 3 -3 4 -12 1 -19z m70 0 c-3 -8 -6 -5
-6 6 -1 11 2 17 5 13 3 -3 4 -12 1 -19z m70 0 c-3 -8 -6 -5 -6 6 -1 11 2 17 5
13 3 -3 4 -12 1 -19z m73 7 c0 -8 -4 -15 -10 -15 -5 0 -10 7 -10 15 0 8 5 15
10 15 6 0 10 -7 10 -15z m57 -7 c-3 -8 -6 -5 -6 6 -1 11 2 17 5 13 3 -3 4 -12
1 -19z m70 0 c-3 -8 -6 -5 -6 6 -1 11 2 17 5 13 3 -3 4 -12 1 -19z m70 0 c-3
-8 -6 -5 -6 6 -1 11 2 17 5 13 3 -3 4 -12 1 -19z m70 0 c-3 -8 -6 -5 -6 6 -1
11 2 17 5 13 3 -3 4 -12 1 -19z m73 2 c0 -11 -2 -20 -4 -20 -2 0 -6 9 -9 20
-3 11 -1 20 4 20 5 0 9 -9 9 -20z m-5083 -26 c40 -14 65 -45 44 -52 -6 -2 -11
-8 -11 -14 0 -5 -9 -23 -21 -39 -25 -35 -62 -38 -119 -9 -40 20 -120 25 -185
11 -25 -5 -31 -12 -33 -39 -3 -34 -13 -40 -30 -19 -17 21 -10 53 20 89 18 21
26 26 22 13 -5 -15 -2 -13 15 7 12 15 37 34 54 41 18 8 43 19 57 25 31 13 131
6 187 -14z m2843 -27 c47 -24 30 -40 -65 -65 -49 -14 -103 -27 -119 -30 l-29
-5 19 34 c35 62 135 96 194 66z m1687 -39 c-3 -8 -6 -5 -6 6 -1 11 2 17 5 13
3 -3 4 -12 1 -19z m70 0 c-3 -8 -6 -5 -6 6 -1 11 2 17 5 13 3 -3 4 -12 1 -19z
m73 2 c0 -11 -2 -20 -4 -20 -2 0 -6 9 -9 20 -3 11 -1 20 4 20 5 0 9 -9 9 -20z
m70 5 c0 -8 -4 -15 -10 -15 -5 0 -10 7 -10 15 0 8 5 15 10 15 6 0 10 -7 10
-15z m57 -7 c-3 -8 -6 -5 -6 6 -1 11 2 17 5 13 3 -3 4 -12 1 -19z m70 0 c-3
-8 -6 -5 -6 6 -1 11 2 17 5 13 3 -3 4 -12 1 -19z m70 -10 c-3 -7 -5 -2 -5 12
0 14 2 19 5 13 2 -7 2 -19 0 -25z m73 12 c0 -11 -2 -20 -4 -20 -2 0 -6 9 -9
20 -3 11 -1 20 4 20 5 0 9 -9 9 -20z m70 -2 c0 -19 -2 -20 -10 -8 -13 19 -13
30 0 30 6 0 10 -10 10 -22z m-553 -90 c-3 -8 -6 -5 -6 6 -1 11 2 17 5 13 3 -3
4 -12 1 -19z m69 2 c0 -14 -7 -20 -21 -19 -11 0 -14 3 -7 6 6 2 12 9 12 14 0
6 -4 7 -10 4 -5 -3 -10 -1 -10 4 0 6 8 11 18 11 11 0 18 -7 18 -20z m-4908
-84 c2 -9 -8 -29 -22 -43 -14 -14 -26 -30 -26 -34 0 -5 -4 -9 -10 -9 -16 0
-12 46 5 60 8 7 15 20 15 30 0 23 34 20 38 -4z m1896 8 c11 -4 16 -19 16 -49
0 -49 -7 -53 -91 -51 -47 1 -54 4 -57 23 -2 11 3 26 10 32 50 43 64 51 84 51
12 0 29 -3 38 -6z m2547 -56 c0 -9 2 -9 6 1 5 11 7 11 15 0 7 -11 11 -11 15
-1 9 22 33 13 33 -13 0 -16 -6 -25 -15 -25 -8 0 -15 5 -15 11 0 5 -5 7 -10 4
-6 -4 -8 -10 -5 -15 3 -5 1 -11 -5 -15 -5 -3 -10 0 -10 8 0 10 -7 13 -20 10
-15 -4 -20 0 -20 14 0 30 29 49 31 21z m90 -40 c-9 -20 -10 -18 -10 17 0 31 2
36 9 23 6 -10 7 -25 1 -40z m79 31 c0 -10 -4 -19 -10 -19 -5 0 -7 -6 -4 -13 3
-8 -3 -13 -16 -13 -23 0 -25 7 -7 25 10 11 9 13 -3 9 -10 -4 -16 0 -16 12 0
12 9 17 28 18 21 0 28 -4 28 -19z m45 11 c-17 -7 -17 -9 -2 -9 25 -1 21 -19
-5 -24 -23 -4 -23 -4 2 -15 l25 -11 -27 0 c-25 -1 -28 2 -28 34 0 32 3 35 28
34 24 0 25 -1 7 -9z m185 -19 c0 -15 -5 -18 -22 -13 -19 5 -20 7 -5 10 9 2 17
8 17 13 0 5 2 9 5 9 3 0 5 -9 5 -19z m70 0 c0 -15 -5 -18 -22 -13 -19 5 -20 7
-5 10 9 2 17 8 17 13 0 5 2 9 5 9 3 0 5 -9 5 -19z m140 -6 c0 -8 -7 -11 -19
-8 -16 4 -17 8 -8 18 14 15 27 10 27 -10z m57 3 c-3 -8 -6 -5 -6 6 -1 11 2 17
5 13 3 -3 4 -12 1 -19z m73 7 c0 -9 -9 -15 -22 -14 -17 1 -19 2 -5 6 9 2 17 9
17 14 0 5 2 9 5 9 3 0 5 -7 5 -15z m67 -17 c-3 -7 -5 -2 -5 12 0 14 2 19 5 13
2 -7 2 -19 0 -25z m143 7 c0 -9 -7 -11 -22 -7 -19 5 -20 7 -5 10 9 2 14 8 11
14 -4 7 -2 8 4 4 7 -4 12 -13 12 -21z m-410 1 c0 -10 -7 -12 -22 -8 -21 5 -21
6 -2 13 10 4 20 8 22 8 1 1 2 -5 2 -13z m340 0 c0 -10 -7 -12 -22 -8 -21 5
-21 6 -2 13 10 4 20 8 22 8 1 1 2 -5 2 -13z m-2215 -79 c-2 -7 -6 -24 -9 -39
-6 -26 -36 -41 -36 -18 0 23 30 81 39 75 6 -3 8 -11 6 -18z m-1245 -57 c0 -23
-4 -30 -20 -30 -24 0 -26 22 -4 44 21 22 24 20 24 -14z m2587 -6 c-1 10 4 21
11 23 8 3 12 -7 12 -30 l0 -35 -30 14 c-19 10 -30 23 -30 36 0 19 1 19 19 -3
17 -21 19 -22 18 -5z m76 8 c16 -18 16 -19 -12 -19 -26 0 -28 2 -18 19 7 10
12 18 13 18 0 0 8 -8 17 -18z m74 -1 c-1 -12 -9 -18 -24 -18 -22 0 -31 16 -16
30 14 15 42 7 40 -12z m53 8 c0 6 5 11 10 11 6 0 10 -16 10 -36 0 -30 -3 -34
-14 -25 -7 6 -33 9 -57 7 -24 -2 -32 -1 -17 1 19 3 30 12 34 29 5 20 9 22 20
13 10 -8 14 -8 14 0z m90 -24 c0 -31 -3 -35 -26 -35 -19 0 -25 4 -21 15 4 8 2
17 -3 20 -15 10 -12 23 8 28 37 10 42 7 42 -28z m303 5 c3 -11 1 -20 -4 -20
-5 0 -9 9 -9 20 0 11 2 20 4 20 2 0 6 -9 9 -20z m-133 -6 c0 -8 -5 -12 -10 -9
-6 4 -8 11 -5 16 9 14 15 11 15 -7z m70 0 c0 -8 -4 -12 -10 -9 -5 3 -10 10
-10 16 0 5 5 9 10 9 6 0 10 -7 10 -16z m127 -6 c-3 -8 -6 -5 -6 6 -1 11 2 17
5 13 3 -3 4 -12 1 -19z m73 6 c0 -8 -5 -12 -10 -9 -6 4 -8 11 -5 16 9 14 15
11 15 -7z m70 0 c0 -8 -5 -12 -10 -9 -6 4 -8 11 -5 16 9 14 15 11 15 -7z m70
0 c0 -8 -5 -12 -10 -9 -6 4 -8 11 -5 16 9 14 15 11 15 -7z m70 0 c0 -8 -4 -12
-10 -9 -5 3 -10 10 -10 16 0 5 5 9 10 9 6 0 10 -7 10 -16z m-6949 -23 c23 -19
24 -23 24 -175 0 -175 -4 -187 -55 -161 -42 22 -115 89 -139 129 -57 94 -15
242 61 213 7 -2 22 -1 33 4 33 13 51 10 76 -10z m1765 -31 c0 -25 2 -65 3 -90
4 -67 1 -78 -14 -45 -9 20 -12 52 -9 93 4 43 1 69 -8 79 -10 13 -9 15 7 11 16
-3 20 -12 21 -48z m4322 33 c-10 -2 -26 -2 -35 0 -10 3 -2 5 17 5 19 0 27 -2
18 -5z m-4018 -105 c-1 -18 -25 -48 -39 -48 -7 0 -10 4 -6 9 3 5 1 12 -5 16
-5 3 -10 1 -10 -4 0 -17 -37 -13 -44 5 -12 30 -6 34 49 34 38 0 55 -4 55 -12z
m3951 -8 c11 -26 -2 -50 -27 -50 -19 0 -23 4 -20 23 3 12 5 27 5 33 1 17 35
12 42 -6z m79 -16 c0 -19 -4 -34 -10 -34 -5 0 -10 4 -10 10 0 5 -7 7 -15 4 -8
-4 -16 -2 -16 2 -7 48 -6 51 22 52 26 1 29 -2 29 -34z m40 14 l9 -23 0 22 c1
20 4 21 25 13 13 -5 27 -6 30 -3 3 4 6 -3 6 -15 0 -29 -20 -39 -37 -17 -12 18
-13 18 -13 -3 0 -16 -6 -22 -23 -22 -20 0 -24 5 -25 35 -2 39 14 46 28 13z
m87 -30 c-2 -13 -4 -5 -4 17 -1 22 1 32 4 23 2 -10 2 -28 0 -40z m173 16 c0
-8 -5 -12 -10 -9 -6 4 -8 11 -5 16 9 14 15 11 15 -7z m70 0 c0 -8 -5 -12 -10
-9 -6 4 -8 11 -5 16 9 14 15 11 15 -7z m70 0 c0 -8 -5 -12 -10 -9 -6 4 -8 11
-5 16 9 14 15 11 15 -7z m70 0 c0 -8 -4 -12 -10 -9 -5 3 -10 10 -10 16 0 5 5
9 10 9 6 0 10 -7 10 -16z m64 1 c3 -8 1 -15 -4 -15 -6 0 -10 7 -10 15 0 8 2
15 4 15 2 0 6 -7 10 -15z m63 -7 c-3 -8 -6 -5 -6 6 -1 11 2 17 5 13 3 -3 4
-12 1 -19z m70 0 c-3 -8 -6 -5 -6 6 -1 11 2 17 5 13 3 -3 4 -12 1 -19z m73 6
c0 -8 -5 -12 -10 -9 -6 4 -8 11 -5 16 9 14 15 11 15 -7z m70 0 c0 -8 -5 -12
-10 -9 -6 4 -8 11 -5 16 9 14 15 11 15 -7z m-5472 -51 c-2 -11 5 -19 17 -21
10 -2 30 -11 43 -20 23 -15 23 -15 4 -35 -16 -16 -25 -18 -48 -10 -31 10 -40
36 -30 79 7 27 18 33 14 7z m4552 -100 c0 -38 -8 -41 -41 -15 -28 23 -20 47
15 47 23 0 26 -4 26 -32z m67 2 c-2 -22 -9 -31 -25 -33 -12 -2 -22 1 -22 7 0
6 7 8 15 5 8 -4 15 -1 15 6 0 6 -4 9 -8 6 -13 -8 -35 11 -30 25 3 8 17 14 32
14 24 0 26 -3 23 -30z m55 27 c8 24 14 -7 7 -37 -5 -22 -7 -24 -8 -8 -1 16 -6
20 -21 16 -13 -4 -20 0 -20 9 0 22 11 29 26 17 8 -7 13 -6 16 3z m98 -27 c0
-36 -13 -47 -24 -20 -3 8 -12 15 -21 15 -8 0 -15 6 -15 14 0 13 9 17 53 25 4
0 7 -15 7 -34z m65 10 c0 -11 -5 -26 -12 -33 -18 -19 -41 5 -35 36 6 30 47 28
47 -3z m75 -10 c0 -24 -5 -35 -15 -35 -8 0 -15 5 -15 11 0 6 -7 9 -15 5 -17
-6 -18 0 -5 29 l9 20 1 -20 c1 -19 2 -18 10 3 14 33 30 27 30 -13z m160 0 c0
-9 -6 -12 -16 -8 -13 5 -13 7 -2 14 17 11 18 11 18 -6z m70 1 c0 -10 -7 -12
-22 -8 -21 5 -21 6 -2 13 10 4 20 8 22 8 1 1 2 -5 2 -13z m70 0 c0 -10 -7 -12
-22 -8 -21 5 -21 6 -2 13 10 4 20 8 22 8 1 1 2 -5 2 -13z m70 0 c0 -10 -7 -12
-22 -8 -21 5 -21 6 -2 13 10 4 20 8 22 8 1 1 2 -5 2 -13z m70 0 c0 -9 -7 -12
-21 -9 -16 4 -17 8 -7 14 19 13 28 11 28 -5z m60 -1 c0 -9 -6 -12 -16 -8 -13
5 -13 7 -2 14 17 11 18 11 18 -6z m70 0 c0 -9 -6 -12 -16 -8 -13 5 -13 7 -2
14 17 11 18 11 18 -6z m-823 -21 c-3 -3 -12 -4 -19 -1 -8 3 -5 6 6 6 11 1 17
-2 13 -5z m83 -4 c0 -5 -4 -10 -10 -10 -5 0 -10 5 -10 10 0 6 5 10 10 10 6 0
10 -4 10 -10z m-2586 -6 c28 -11 17 -31 -44 -81 -33 -26 -74 -70 -92 -98 -18
-27 -57 -81 -87 -118 -31 -38 -68 -87 -84 -110 -43 -64 -53 -73 -71 -57 -19
15 -22 130 -4 181 14 43 88 169 99 169 4 0 12 -7 17 -15 13 -25 62 -33 94 -17
28 14 45 30 114 110 20 23 38 42 39 42 2 0 10 -3 19 -6z m2530 -124 c1 -21 -3
-29 -12 -25 -8 3 -19 5 -26 5 -6 0 -13 12 -14 26 -2 22 1 25 18 21 11 -3 20 0
20 6 0 25 13 -6 14 -33z m-134 -2 c0 -26 -3 -29 -22 -22 -46 14 -52 53 -8 52
26 -1 30 -5 30 -30z m67 2 c-2 -30 -20 -46 -39 -34 -5 3 -7 12 -4 20 3 8 1 14
-4 14 -6 0 -10 7 -10 15 0 10 10 15 30 15 26 0 29 -3 27 -30z m130 14 c8 -21
-13 -42 -28 -27 -13 13 -5 43 11 43 6 0 13 -7 17 -16z m23 -14 c0 -16 -4 -30
-8 -30 -5 0 -7 14 -4 30 2 17 6 30 8 30 2 0 4 -13 4 -30z m70 26 c0 -18 -15
-36 -31 -36 -12 0 -19 7 -19 20 0 15 7 20 25 20 14 0 25 -2 25 -4z m67 -13 c3
-6 0 -20 -6 -30 -6 -10 -11 -13 -11 -6 0 6 -9 9 -20 6 -16 -4 -20 0 -20 21 0
22 4 25 26 24 15 -2 28 -8 31 -15z m28 7 c-3 -5 0 -10 9 -10 8 0 16 6 19 13 8
22 15 3 10 -25 -4 -19 -12 -28 -24 -28 -11 0 -19 3 -19 8 0 4 -3 17 -6 30 -4
13 -2 22 5 22 7 0 9 -4 6 -10z m103 -20 c-2 -25 -7 -30 -28 -30 -18 0 -21 3
-11 9 11 7 11 9 0 13 -20 7 -3 38 21 38 16 0 20 -6 18 -30z m169 -2 c-3 -8 -6
-5 -6 6 -1 11 2 17 5 13 3 -3 4 -12 1 -19z m73 6 c0 -8 -5 -12 -10 -9 -6 4 -8
11 -5 16 9 14 15 11 15 -7z m70 1 c0 -8 -4 -15 -10 -15 -5 0 -10 7 -10 15 0 8
5 15 10 15 6 0 10 -7 10 -15z m57 -7 c-3 -8 -6 -5 -6 6 -1 11 2 17 5 13 3 -3
4 -12 1 -19z m70 0 c-3 -8 -6 -5 -6 6 -1 11 2 17 5 13 3 -3 4 -12 1 -19z
m-5185 -3 c0 -5 -5 -11 -11 -13 -6 -2 -11 4 -11 13 0 9 5 15 11 13 6 -2 11 -8
11 -13z m4536 -22 c-10 -2 -26 -2 -35 0 -10 3 -2 5 17 5 19 0 27 -2 18 -5z
m-278 -125 c0 -26 -3 -29 -22 -22 -46 14 -52 53 -8 52 26 -1 30 -5 30 -30z
m67 2 c-2 -30 -20 -46 -39 -34 -5 3 -7 12 -4 20 3 8 1 14 -4 14 -6 0 -10 7
-10 15 0 10 10 15 30 15 26 0 29 -3 27 -30z m68 -2 c0 -19 -4 -27 -13 -23 -8
3 -19 5 -26 5 -6 0 -13 11 -14 24 -1 21 3 25 26 24 23 -1 27 -5 27 -30z m65
19 c0 -15 -20 -37 -33 -37 -5 0 -4 7 3 15 6 8 9 19 5 25 -3 5 1 10 9 10 9 0
16 -6 16 -13z m17 -34 c-3 -10 -5 -2 -5 17 0 19 2 27 5 18 2 -10 2 -26 0 -35z
m43 32 c0 -21 18 -19 23 3 3 9 5 2 6 -16 1 -34 -17 -50 -41 -36 -9 6 -6 10 12
15 l25 7 -27 1 c-30 1 -31 2 -22 25 8 20 24 21 24 1z m200 -10 c0 -8 -2 -15
-4 -15 -2 0 -6 7 -10 15 -3 8 -1 15 4 15 6 0 10 -7 10 -15z m70 -6 c0 -5 -4
-9 -10 -9 -5 0 -10 7 -10 16 0 8 5 12 10 9 6 -3 10 -10 10 -16z m57 -1 c-3 -8
-6 -5 -6 6 -1 11 2 17 5 13 3 -3 4 -12 1 -19z m70 0 c-3 -8 -6 -5 -6 6 -1 11
2 17 5 13 3 -3 4 -12 1 -19z m70 0 c-3 -8 -6 -5 -6 6 -1 11 2 17 5 13 3 -3 4
-12 1 -19z m70 -10 c-3 -7 -5 -2 -5 12 0 14 2 19 5 13 2 -7 2 -19 0 -25z m73
11 c0 -11 -4 -17 -10 -14 -5 3 -10 13 -10 21 0 8 5 14 10 14 6 0 10 -9 10 -21z
m70 0 c0 -5 -4 -9 -10 -9 -5 0 -10 7 -10 16 0 8 5 12 10 9 6 -3 10 -10 10 -16z
m-5052 -41 c-8 -56 -171 -85 -218 -38 -44 44 -17 56 133 59 85 1 88 0 85 -21z
m4112 -115 c0 -31 -1 -33 -22 -21 -47 27 -51 57 -8 56 27 -1 30 -4 30 -35z
m66 3 c-4 -40 -32 -47 -46 -11 -15 39 -13 44 20 43 27 -1 29 -4 26 -32z m68 2
c-1 -26 -14 -55 -14 -30 0 7 -8 12 -18 12 -11 0 -18 8 -20 24 -1 21 3 25 26
24 23 -1 27 -5 26 -30z m85 -8 c-1 -19 -3 -27 -6 -17 -3 12 -11 16 -23 12 -10
-3 -21 -1 -25 5 -12 19 3 38 29 36 23 -1 26 -5 25 -36z m64 34 c7 -7 -13 -54
-24 -54 -8 0 -19 26 -19 46 0 14 31 20 43 8z m247 -25 c0 -5 -4 -9 -10 -9 -5
0 -10 7 -10 16 0 8 5 12 10 9 6 -3 10 -10 10 -16z m57 -1 c-3 -8 -6 -5 -6 6
-1 11 2 17 5 13 3 -3 4 -12 1 -19z m70 -10 c-3 -7 -5 -2 -5 12 0 14 2 19 5 13
2 -7 2 -19 0 -25z m73 13 c0 -15 -5 -18 -22 -13 -19 5 -20 7 -5 10 9 2 17 8
17 13 0 5 2 9 5 9 3 0 5 -9 5 -19z m70 -2 c0 -11 -4 -18 -10 -14 -5 3 -7 12
-3 20 7 21 13 19 13 -6z m70 -5 c0 -8 -4 -12 -10 -9 -5 3 -10 13 -10 21 0 8 5
12 10 9 6 -3 10 -13 10 -21z m70 5 c0 -5 -4 -9 -10 -9 -5 0 -10 7 -10 16 0 8
5 12 10 9 6 -3 10 -10 10 -16z m-480 -5 c0 -8 -5 -12 -10 -9 -6 4 -8 11 -5 16
9 14 15 11 15 -7z m0 -91 c0 -19 -13 -9 -16 12 -1 8 2 13 7 9 5 -3 9 -12 9
-21z m70 1 c0 -8 -4 -12 -10 -9 -5 3 -10 13 -10 21 0 8 5 12 10 9 6 -3 10 -13
10 -21z m57 4 c-3 -8 -6 -5 -6 6 -1 11 2 17 5 13 3 -3 4 -12 1 -19z m70 -10
c-3 -7 -5 -2 -5 12 0 14 2 19 5 13 2 -7 2 -19 0 -25z m70 0 c-3 -7 -5 -2 -5
12 0 14 2 19 5 13 2 -7 2 -19 0 -25z m143 6 c0 -8 -4 -12 -10 -9 -5 3 -10 13
-10 21 0 8 5 12 10 9 6 -3 10 -13 10 -21z m70 0 c0 -8 -4 -12 -10 -9 -5 3 -10
13 -10 21 0 8 5 12 10 9 6 -3 10 -13 10 -21z m-140 0 c0 -8 -5 -12 -10 -9 -6
4 -8 11 -5 16 9 14 15 11 15 -7z m-2811 -107 c-5 -65 -15 -118 -24 -135 -15
-26 -16 -23 -11 63 3 50 10 106 17 125 7 19 14 41 16 49 9 35 10 -3 2 -102z
m2471 16 c0 -19 -13 -9 -16 12 -1 8 2 13 7 9 5 -3 9 -12 9 -21z m70 1 c0 -8
-4 -12 -10 -9 -5 3 -10 13 -10 21 0 8 5 12 10 9 6 -3 10 -13 10 -21z m57 4
c-3 -8 -6 -5 -6 6 -1 11 2 17 5 13 3 -3 4 -12 1 -19z m70 -10 c-3 -7 -5 -2 -5
12 0 14 2 19 5 13 2 -7 2 -19 0 -25z m71 1 c-3 -8 -7 -3 -11 10 -4 17 -3 21 5
13 5 -5 8 -16 6 -23z m72 4 c0 -19 -13 -9 -16 12 -1 8 2 13 7 9 5 -3 9 -12 9
-21z m70 1 c0 -8 -4 -12 -10 -9 -5 3 -10 13 -10 21 0 8 5 12 10 9 6 -3 10 -13
10 -21z m70 0 c0 -8 -4 -12 -10 -9 -5 3 -10 13 -10 21 0 8 5 12 10 9 6 -3 10
-13 10 -21z m-70 -90 c0 -8 -4 -12 -10 -9 -5 3 -10 13 -10 21 0 8 5 12 10 9 6
-3 10 -13 10 -21z m-410 0 c0 -8 -5 -12 -10 -9 -6 4 -8 11 -5 16 9 14 15 11
15 -7z m70 0 c0 -8 -4 -12 -10 -9 -5 3 -10 10 -10 16 0 5 5 9 10 9 6 0 10 -7
10 -16z m127 -6 c-3 -8 -6 -5 -6 6 -1 11 2 17 5 13 3 -3 4 -12 1 -19z m70 0
c-3 -8 -6 -5 -6 6 -1 11 2 17 5 13 3 -3 4 -12 1 -19z m73 6 c0 -8 -5 -12 -10
-9 -6 4 -8 11 -5 16 9 14 15 11 15 -7z m140 0 c0 -8 -4 -12 -10 -9 -5 3 -10
10 -10 16 0 5 5 9 10 9 6 0 10 -7 10 -16z m-3245 -72 c-6 -16 -7 -16 -16 0 -5
9 -6 24 -3 33 7 16 8 16 16 0 5 -9 7 -24 3 -33z m13 -49 c15 -28 8 -83 -16
-137 -13 -27 -25 -47 -27 -44 -3 3 -1 29 5 58 5 29 10 72 10 96 0 45 13 57 28
27z m2292 -31 c0 -21 -4 -31 -11 -27 -6 4 -8 13 -5 21 3 8 1 14 -4 14 -6 0
-10 -7 -10 -16 0 -8 -5 -12 -11 -9 -6 4 -8 14 -5 22 3 8 1 11 -4 8 -6 -3 -10
-2 -10 3 0 15 10 20 36 18 20 -1 24 -6 24 -34z m67 4 c-2 -23 -9 -32 -25 -34
-12 -2 -22 1 -22 7 0 6 8 8 18 5 9 -2 7 1 -5 7 -37 20 -30 47 13 47 22 0 24
-4 21 -32z m55 26 c8 24 14 -7 7 -37 -5 -22 -7 -24 -8 -8 -1 16 -6 20 -21 16
-13 -4 -20 0 -20 9 0 22 11 29 26 17 8 -7 13 -6 16 3z m97 -29 c-1 -24 -3 -29
-6 -15 -2 12 -9 22 -14 22 -8 0 10 28 19 30 1 0 1 -17 1 -37z m68 20 c4 -9 1
-19 -5 -21 -7 -2 -12 -10 -12 -18 0 -8 -4 -14 -10 -14 -5 0 -10 6 -10 14 0 8
-6 17 -12 19 -7 3 -3 6 10 6 12 1 22 5 22 11 0 5 -7 7 -15 4 -8 -4 -15 -1 -15
5 0 18 40 13 47 -6z m69 -51 c-13 -12 -17 8 -10 40 l9 33 3 -33 c2 -19 1 -36
-2 -40z m-176 37 c0 -13 4 -18 13 -13 9 5 9 4 0 -6 -6 -7 -16 -9 -22 -6 -14 9
-14 46 -1 46 6 0 10 -9 10 -21z m155 11 c3 -5 1 -10 -5 -10 -7 0 -10 -7 -6
-15 6 -18 -10 -20 -20 -3 -4 6 -2 14 4 16 7 2 10 8 6 13 -3 5 -1 9 5 9 5 0 13
-4 16 -10z m182 -22 c-3 -8 -6 -5 -6 6 -1 11 2 17 5 13 3 -3 4 -12 1 -19z m70
0 c-3 -8 -6 -5 -6 6 -1 11 2 17 5 13 3 -3 4 -12 1 -19z m73 6 c0 -8 -5 -12
-10 -9 -6 4 -8 11 -5 16 9 14 15 11 15 -7z m70 0 c0 -8 -5 -12 -10 -9 -6 4 -8
11 -5 16 9 14 15 11 15 -7z m70 0 c0 -8 -4 -12 -10 -9 -5 3 -10 10 -10 16 0 5
5 9 10 9 6 0 10 -7 10 -16z m57 -6 c-3 -8 -6 -5 -6 6 -1 11 2 17 5 13 3 -3 4
-12 1 -19z m70 0 c-3 -8 -6 -5 -6 6 -1 11 2 17 5 13 3 -3 4 -12 1 -19z m-820
-14 c-3 -3 -12 -4 -19 -1 -8 3 -5 6 6 6 11 1 17 -2 13 -5z m-97 -116 c0 24 30
12 30 -13 0 -16 -6 -25 -15 -25 -8 0 -15 5 -15 10 0 6 -5 10 -11 10 -6 0 -9
-7 -5 -15 3 -8 1 -15 -4 -15 -6 0 -10 8 -10 18 0 13 -2 14 -9 3 -12 -18 -31
-5 -31 21 0 15 5 19 20 15 11 -3 20 0 20 6 0 6 7 2 15 -9 8 -11 15 -14 15 -6z
m51 -30 c-9 -20 -10 -18 -10 17 0 31 2 36 9 23 6 -10 7 -25 1 -40z m79 26 c0
-8 -5 -14 -11 -14 -6 0 -9 -7 -5 -15 4 -10 -1 -15 -16 -15 -17 0 -19 3 -10 12
18 18 15 33 -4 17 -14 -11 -15 -10 -12 7 1 10 12 22 23 25 25 7 35 2 35 -17z
m58 -7 c2 -12 -4 -17 -20 -18 -23 -1 -23 -1 2 -9 l25 -8 -27 -1 c-25 -1 -28 3
-28 29 0 25 3 29 23 26 12 -1 23 -10 25 -19z m169 -9 c-3 -8 -6 -5 -6 6 -1 11
2 17 5 13 3 -3 4 -12 1 -19z m70 0 c-3 -8 -6 -5 -6 6 -1 11 2 17 5 13 3 -3 4
-12 1 -19z m73 6 c0 -8 -5 -12 -10 -9 -6 4 -8 11 -5 16 9 14 15 11 15 -7z m70
1 c0 -8 -4 -15 -10 -15 -5 0 -10 7 -10 15 0 8 5 15 10 15 6 0 10 -7 10 -15z
m57 -7 c-3 -8 -6 -5 -6 6 -1 11 2 17 5 13 3 -3 4 -12 1 -19z m70 0 c-3 -8 -6
-5 -6 6 -1 11 2 17 5 13 3 -3 4 -12 1 -19z m70 0 c-3 -8 -6 -5 -6 6 -1 11 2
17 5 13 3 -3 4 -12 1 -19z m70 0 c-3 -8 -6 -5 -6 6 -1 11 2 17 5 13 3 -3 4
-12 1 -19z m73 6 c0 -8 -4 -12 -10 -9 -5 3 -10 10 -10 16 0 5 5 9 10 9 6 0 10
-7 10 -16z m-925 -141 c-2 -10 -4 -24 -4 -30 -1 -7 -11 -13 -24 -13 -19 0 -23
5 -23 30 0 26 3 30 27 30 21 0 26 -4 24 -17z m75 -13 c0 -34 1 -34 -34 -20
-38 14 -35 50 4 50 27 0 30 -3 30 -30z m41 13 c0 -15 2 -15 7 -3 4 8 19 15 35
16 22 0 27 -4 27 -23 0 -27 -24 -31 -39 -5 -9 15 -10 15 -11 -5 0 -24 -19 -33
-21 -10 0 10 -2 10 -6 0 -9 -23 -20 -14 -21 17 0 20 4 30 14 30 8 0 14 -8 15
-17z m92 -24 c-8 -29 -13 -23 -13 14 0 22 3 28 9 18 5 -7 6 -22 4 -32z m164 9
c-3 -8 -6 -5 -6 6 -1 11 2 17 5 13 3 -3 4 -12 1 -19z m70 0 c-3 -8 -6 -5 -6 6
-1 11 2 17 5 13 3 -3 4 -12 1 -19z m73 7 c0 -8 -4 -15 -8 -15 -5 0 -9 7 -9 15
0 8 4 15 9 15 4 0 8 -7 8 -15z m70 0 c0 -8 -4 -15 -10 -15 -5 0 -10 7 -10 15
0 8 5 15 10 15 6 0 10 -7 10 -15z m64 0 c3 -8 1 -15 -4 -15 -6 0 -10 7 -10 15
0 8 2 15 4 15 2 0 6 -7 10 -15z m63 -7 c-3 -8 -6 -5 -6 6 -1 11 2 17 5 13 3
-3 4 -12 1 -19z m70 0 c-3 -8 -6 -5 -6 6 -1 11 2 17 5 13 3 -3 4 -12 1 -19z
m70 -10 c-3 -7 -5 -2 -5 12 0 14 2 19 5 13 2 -7 2 -19 0 -25z m73 11 c0 -11
-4 -17 -10 -14 -5 3 -10 13 -10 21 0 8 5 14 10 14 6 0 10 -9 10 -21z m-950
-136 c0 9 7 17 15 17 11 0 15 -10 14 -37 0 -21 -3 -32 -6 -25 -2 6 -13 12 -23
12 -17 0 -30 18 -30 43 0 6 7 2 15 -9 13 -17 14 -17 15 -1z m90 -12 c0 -3 -11
-6 -24 -6 -19 0 -21 3 -12 17 7 13 14 14 23 6 7 -6 13 -13 13 -17z m66 9 c0
-14 -7 -20 -23 -20 -16 0 -23 6 -23 20 0 14 7 20 23 20 16 0 23 -6 23 -20z
m74 -18 c0 -26 -3 -33 -11 -25 -6 6 -44 10 -92 8 -46 -1 -54 0 -20 2 56 3 64
7 69 27 4 17 13 24 30 24 21 0 24 -5 24 -36z m70 2 c0 -31 -3 -35 -22 -32 -14
2 -23 10 -23 20 0 9 -4 20 -8 24 -15 15 -6 24 23 24 28 0 30 -3 30 -36z
m-2326 -9 c13 -29 19 -101 8 -90 -2 1 -14 -7 -27 -19 -23 -20 -23 -21 -4 -28
26 -10 26 -58 -1 -65 -11 -3 -20 -9 -20 -14 0 -5 7 -6 16 -2 13 5 15 2 10 -15
-5 -16 -1 -24 21 -36 15 -8 22 -15 16 -16 -7 0 -13 -7 -13 -15 0 -10 11 -15
33 -16 17 0 41 -4 52 -9 19 -7 18 -8 -5 -13 -14 -4 -60 -8 -102 -11 -87 -5
-93 0 -71 54 8 19 16 58 18 85 7 108 35 245 50 245 2 0 11 -16 19 -35z m2496
10 c0 -8 -7 -11 -19 -8 -16 4 -17 8 -8 18 14 15 27 10 27 -10z m70 4 c0 -5 -9
-9 -20 -9 -17 0 -19 2 -8 14 13 14 28 12 28 -5z m60 6 c0 -9 -9 -15 -22 -14
-17 1 -19 2 -5 6 9 2 17 9 17 14 0 5 2 9 5 9 3 0 5 -7 5 -15z m70 0 c0 -9 -9
-15 -22 -14 -17 1 -19 2 -5 6 9 2 17 9 17 14 0 5 2 9 5 9 3 0 5 -7 5 -15z m70
-4 c0 -15 -5 -18 -22 -13 -19 5 -20 7 -5 10 9 2 17 8 17 13 0 5 2 9 5 9 3 0 5
-9 5 -19z m70 0 c0 -15 -5 -18 -22 -13 -19 5 -20 7 -5 10 9 2 17 8 17 13 0 5
2 9 5 9 3 0 5 -9 5 -19z m70 -6 c0 -8 -7 -11 -19 -8 -16 4 -17 8 -8 18 14 15
27 10 27 -10z m70 1 c0 -9 -9 -11 -27 -8 -20 4 -23 7 -10 10 9 2 17 8 17 13 0
6 5 7 10 4 6 -3 10 -12 10 -19z m-920 -153 c0 -30 -1 -31 -25 -20 -44 21 -44
56 0 53 21 -1 25 -6 25 -33z m67 3 c-2 -23 -9 -32 -25 -34 -13 -2 -22 2 -22
10 0 7 -3 23 -6 35 -5 19 -2 22 25 21 29 -1 31 -3 28 -32z m62 -6 c0 -19 -3
-29 -6 -22 -2 6 -14 12 -26 12 -16 0 -18 3 -9 12 7 7 12 17 12 23 0 5 -5 3
-10 -5 -5 -8 -10 -10 -10 -4 0 16 10 23 31 21 15 -1 19 -9 18 -37z m68 24 c8
-21 -13 -42 -28 -27 -13 13 -5 43 11 43 6 0 13 -7 17 -16z m23 -20 c0 -19 -4
-33 -8 -30 -8 5 -4 66 4 66 2 0 4 -16 4 -36z m63 30 c11 -11 -5 -34 -24 -34
-12 0 -19 7 -19 20 0 19 28 28 43 14z m71 -11 c3 -7 1 -23 -4 -35 -6 -16 -9
-18 -9 -6 -1 11 -7 15 -21 11 -16 -4 -20 0 -20 21 0 21 4 25 25 24 13 -1 27
-8 29 -15z m38 8 c-11 -7 -11 -9 2 -14 10 -4 16 -1 16 8 0 8 4 15 9 15 5 0 8
-12 6 -27 -2 -16 -4 -31 -4 -35 -2 -13 -41 -9 -41 5 0 6 -3 22 -6 35 -5 17 -2
22 12 22 14 0 16 -2 6 -9z m96 -16 c-3 -13 0 -26 6 -29 6 -2 -5 -5 -24 -5 -26
-1 -31 2 -20 9 9 6 10 10 3 10 -6 0 -11 9 -10 20 1 14 8 20 25 20 20 0 24 -4
20 -25z m172 -6 c0 -11 -4 -18 -10 -14 -5 3 -7 12 -3 20 7 21 13 19 13 -6z
m140 -5 c0 -8 -4 -12 -10 -9 -5 3 -10 13 -10 21 0 8 5 12 10 9 6 -3 10 -13 10
-21z m57 4 c-3 -8 -6 -5 -6 6 -1 11 2 17 5 13 3 -3 4 -12 1 -19z m70 0 c-3 -8
-6 -5 -6 6 -1 11 2 17 5 13 3 -3 4 -12 1 -19z m-197 -4 c0 -8 -5 -12 -10 -9
-6 4 -8 11 -5 16 9 14 15 11 15 -7z m-452 -21 c-10 -2 -26 -2 -35 0 -10 3 -2
5 17 5 19 0 27 -2 18 -5z m-2786 -115 c-3 -12 -11 -34 -19 -48 -7 -14 -13 -30
-13 -37 0 -6 -9 -11 -20 -10 -28 2 -25 24 10 80 31 48 53 56 42 15z m2508 -15
c0 -30 -1 -31 -25 -20 -44 21 -44 56 0 53 21 -1 25 -6 25 -33z m67 3 c-2 -23
-9 -32 -25 -34 -12 -2 -22 1 -22 7 0 6 8 8 18 5 9 -2 7 1 -5 7 -35 18 -30 48
7 47 28 -1 30 -4 27 -32z m62 -6 c-1 -22 -3 -27 -6 -13 -3 13 -10 20 -18 17
-15 -6 -29 11 -20 25 3 6 14 9 25 8 16 -1 20 -8 19 -37z m90 3 c-1 -24 -3 -29
-6 -15 -2 12 -9 22 -14 22 -8 0 10 28 19 30 1 0 1 -17 1 -37z m68 20 c4 -9 1
-19 -5 -21 -7 -2 -12 -10 -12 -18 0 -8 -4 -14 -10 -14 -5 0 -10 6 -10 14 0 8
-6 17 -12 19 -7 3 -3 6 10 6 26 1 30 18 5 24 -13 4 -12 5 5 6 13 1 25 -6 29
-16z m73 -21 c0 -28 -3 -33 -12 -24 -7 7 -20 12 -30 12 -20 0 -24 15 -8 25 6
4 8 10 5 14 -2 5 7 9 20 9 22 0 25 -5 25 -36z m-180 14 c0 -8 6 -17 13 -19 6
-3 2 -6 -10 -6 -17 -1 -23 5 -23 19 0 11 5 20 10 20 6 0 10 -6 10 -14z m620
-12 c0 -8 -4 -12 -10 -9 -5 3 -10 13 -10 21 0 8 5 12 10 9 6 -3 10 -13 10 -21z
m57 4 c-3 -8 -6 -5 -6 6 -1 11 2 17 5 13 3 -3 4 -12 1 -19z m70 -10 c-3 -7 -5
-2 -5 12 0 14 2 19 5 13 2 -7 2 -19 0 -25z m-340 0 c-3 -8 -6 -5 -6 6 -1 11 2
17 5 13 3 -3 4 -12 1 -19z m73 6 c0 -8 -5 -12 -10 -9 -6 4 -8 11 -5 16 9 14
15 11 15 -7z m70 0 c0 -8 -5 -12 -10 -9 -6 4 -8 11 -5 16 9 14 15 11 15 -7z
m-623 -20 c-3 -3 -12 -4 -19 -1 -8 3 -5 6 6 6 11 1 17 -2 13 -5z m-2247 -175
c0 -108 -33 -429 -50 -491 -15 -52 -33 -49 -27 5 2 23 10 107 16 187 6 80 16
170 21 201 6 30 10 77 10 105 0 57 9 94 21 94 5 0 9 -46 9 -101z m2140 44 c0
-30 -1 -31 -25 -20 -14 7 -23 18 -20 25 3 7 0 10 -5 7 -6 -3 -10 -2 -10 3 0
15 10 20 36 18 20 -1 24 -6 24 -33z m67 3 c-2 -23 -9 -32 -25 -34 -12 -2 -22
1 -22 7 0 6 8 8 18 5 9 -2 7 1 -5 7 -35 18 -30 48 7 47 28 -1 30 -4 27 -32z
m62 -6 c-1 -21 -3 -26 -6 -14 -3 16 -9 20 -24 17 -12 -4 -19 0 -19 9 0 20 5
24 30 24 17 0 20 -6 19 -36z m89 3 c-1 -28 -5 -33 -22 -31 -12 2 -19 6 -16 9
3 3 -1 13 -8 22 -18 21 -10 32 22 33 23 2 25 -2 24 -33z m67 12 c0 -11 -5 -26
-12 -33 -18 -19 -41 5 -35 36 6 30 47 28 47 -3z m75 -10 c0 -40 1 -39 -32 -22
-16 8 -22 19 -19 32 l4 20 8 -20 c7 -19 8 -19 8 3 2 39 31 27 31 -13z m227 -7
c-3 -8 -6 -5 -6 6 -1 11 2 17 5 13 3 -3 4 -12 1 -19z m73 6 c0 -8 -5 -12 -10
-9 -6 4 -8 11 -5 16 9 14 15 11 15 -7z m70 0 c0 -8 -5 -12 -10 -9 -6 4 -8 11
-5 16 9 14 15 11 15 -7z m70 0 c0 -8 -4 -12 -10 -9 -5 3 -10 10 -10 16 0 5 5
9 10 9 6 0 10 -7 10 -16z m57 -6 c-3 -8 -6 -5 -6 6 -1 11 2 17 5 13 3 -3 4
-12 1 -19z m70 0 c-3 -8 -6 -5 -6 6 -1 11 2 17 5 13 3 -3 4 -12 1 -19z m-820
-14 c-3 -3 -12 -4 -19 -1 -8 3 -5 6 6 6 11 1 17 -2 13 -5z m-2019 -39 c-10
-21 -28 -35 -28 -20 0 15 24 54 31 49 5 -2 3 -16 -3 -29z m1908 -122 c-9 -9
-56 26 -56 42 0 8 12 15 28 17 23 3 27 -1 30 -25 2 -16 1 -31 -2 -34z m71 35
c-2 -25 -9 -34 -25 -36 -12 -2 -22 1 -22 7 0 6 8 8 18 5 9 -2 7 1 -5 7 -31 16
-29 37 5 42 15 2 28 5 30 6 2 0 1 -14 -1 -31z m65 -6 c-3 -25 -7 -28 -30 -23
-25 5 -25 6 -4 9 12 2 22 7 22 12 0 4 -9 6 -20 3 -14 -4 -20 0 -20 12 0 12 6
16 20 12 11 -3 20 -1 20 5 0 5 4 7 8 4 5 -3 7 -18 4 -34z m85 -14 c-2 -13 -4
-5 -4 17 -1 22 1 32 4 23 2 -10 2 -28 0 -40z m69 4 c-11 -10 -15 4 -8 28 l7
25 3 -23 c2 -13 1 -26 -2 -30z m-86 32 c0 -14 -22 -44 -32 -44 -6 0 -3 9 6 19
13 15 14 20 4 24 -8 4 -7 6 5 6 9 1 17 -2 17 -5z m60 -18 c-8 -21 -6 -25 13
-29 19 -4 19 -4 -4 -6 -20 -1 -28 5 -32 21 -7 26 -1 38 18 38 11 0 12 -6 5
-24z m-2219 -23 c-10 -17 -10 -16 -11 3 0 23 13 41 18 25 2 -6 -1 -18 -7 -28z
m2419 21 c0 -8 -5 -12 -10 -9 -6 4 -8 11 -5 16 9 14 15 11 15 -7z m70 0 c0 -8
-4 -12 -10 -9 -5 3 -10 10 -10 16 0 5 5 9 10 9 6 0 10 -7 10 -16z m57 -6 c-3
-8 -6 -5 -6 6 -1 11 2 17 5 13 3 -3 4 -12 1 -19z m70 0 c-3 -8 -6 -5 -6 6 -1
11 2 17 5 13 3 -3 4 -12 1 -19z m70 0 c-3 -8 -6 -5 -6 6 -1 11 2 17 5 13 3 -3
4 -12 1 -19z m70 0 c-3 -8 -6 -5 -6 6 -1 11 2 17 5 13 3 -3 4 -12 1 -19z m73
7 c0 -8 -4 -15 -10 -15 -5 0 -10 7 -10 15 0 8 5 15 10 15 6 0 10 -7 10 -15z
m70 -6 c0 -5 -4 -9 -10 -9 -5 0 -10 7 -10 16 0 8 5 12 10 9 6 -3 10 -10 10
-16z m-806 -149 c1 -21 -3 -29 -12 -25 -8 3 -19 5 -26 5 -6 0 -13 12 -14 26
-2 22 1 25 18 21 11 -3 20 0 20 6 0 25 13 -6 14 -33z m86 3 c0 -21 -4 -33 -8
-26 -4 6 -16 11 -27 10 -31 -3 -26 35 5 44 14 4 26 7 28 8 1 1 2 -16 2 -36z
m58 28 c15 -9 13 -29 -5 -49 -19 -20 -43 6 -32 36 9 24 17 26 37 13z m-278
-33 c0 -26 -3 -29 -22 -22 -46 14 -52 53 -8 52 26 -1 30 -5 30 -30z m67 3 c-2
-22 -7 -28 -25 -28 -16 0 -21 4 -18 13 3 8 1 14 -4 14 -6 0 -10 7 -10 15 0 10
10 15 30 15 26 0 29 -3 27 -29z m393 3 c0 -8 -4 -12 -10 -9 -5 3 -10 10 -10
16 0 5 5 9 10 9 6 0 10 -7 10 -16z m70 -5 c0 -5 -4 -9 -10 -9 -5 0 -10 7 -10
16 0 8 5 12 10 9 6 -3 10 -10 10 -16z m57 -1 c-3 -8 -6 -5 -6 6 -1 11 2 17 5
13 3 -3 4 -12 1 -19z m70 0 c-3 -8 -6 -5 -6 6 -1 11 2 17 5 13 3 -3 4 -12 1
-19z m70 0 c-3 -8 -6 -5 -6 6 -1 11 2 17 5 13 3 -3 4 -12 1 -19z m70 -10 c-3
-7 -5 -2 -5 12 0 14 2 19 5 13 2 -7 2 -19 0 -25z m73 17 c0 -8 -4 -15 -10 -15
-5 0 -10 7 -10 15 0 8 5 15 10 15 6 0 10 -7 10 -15z m70 -6 c0 -5 -4 -9 -10
-9 -5 0 -10 7 -10 16 0 8 5 12 10 9 6 -3 10 -10 10 -16z m-483 -91 c-3 -8 -6
-5 -6 6 -1 11 2 17 5 13 3 -3 4 -12 1 -19z m73 1 c0 -5 -4 -9 -10 -9 -5 0 -10
7 -10 16 0 8 5 12 10 9 6 -3 10 -10 10 -16z m57 -1 c-3 -8 -6 -5 -6 6 -1 11 2
17 5 13 3 -3 4 -12 1 -19z m70 0 c-3 -8 -6 -5 -6 6 -1 11 2 17 5 13 3 -3 4
-12 1 -19z m70 0 c-3 -8 -6 -5 -6 6 -1 11 2 17 5 13 3 -3 4 -12 1 -19z m70
-10 c-3 -7 -5 -2 -5 12 0 14 2 19 5 13 2 -7 2 -19 0 -25z m73 17 c0 -8 -4 -15
-10 -15 -5 0 -10 7 -10 15 0 8 5 15 10 15 6 0 10 -7 10 -15z m70 -6 c0 -5 -4
-9 -10 -9 -5 0 -10 7 -10 16 0 8 5 12 10 9 6 -3 10 -10 10 -16z m-410 -90 c0
-5 -4 -9 -10 -9 -5 0 -10 7 -10 16 0 8 5 12 10 9 6 -3 10 -10 10 -16z m57 -1
c-3 -8 -6 -5 -6 6 -1 11 2 17 5 13 3 -3 4 -12 1 -19z m70 0 c-3 -8 -6 -5 -6 6
-1 11 2 17 5 13 3 -3 4 -12 1 -19z m70 0 c-3 -8 -6 -5 -6 6 -1 11 2 17 5 13 3
-3 4 -12 1 -19z m73 1 c0 -11 -4 -18 -10 -14 -5 3 -7 12 -3 20 7 21 13 19 13
-6z m70 0 c0 -11 -4 -17 -10 -14 -5 3 -10 13 -10 21 0 8 5 14 10 14 6 0 10 -9
10 -21z m70 0 c0 -5 -4 -9 -10 -9 -5 0 -10 7 -10 16 0 8 5 12 10 9 6 -3 10
-10 10 -16z m-480 1 c0 -5 -5 -10 -11 -10 -5 0 -7 5 -4 10 3 6 8 10 11 10 2 0
4 -4 4 -10z m-2473 -52 c-3 -18 -9 -64 -13 -103 -10 -105 -23 -114 -24 -16 0
83 15 151 33 151 5 0 7 -15 4 -32z m2473 -45 c0 -19 -13 -9 -16 12 -1 8 2 13
7 9 5 -3 9 -12 9 -21z m70 6 c0 -5 -4 -9 -10 -9 -5 0 -10 7 -10 16 0 8 5 12
10 9 6 -3 10 -10 10 -16z m57 -1 c-3 -8 -6 -5 -6 6 -1 11 2 17 5 13 3 -3 4
-12 1 -19z m70 0 c-3 -8 -6 -5 -6 6 -1 11 2 17 5 13 3 -3 4 -12 1 -19z m70
-10 c-3 -7 -5 -2 -5 12 0 14 2 19 5 13 2 -7 2 -19 0 -25z m73 11 c0 -11 -4
-18 -10 -14 -5 3 -7 12 -3 20 7 21 13 19 13 -6z m70 -5 c0 -8 -4 -12 -10 -9
-5 3 -10 13 -10 21 0 8 5 12 10 9 6 -3 10 -13 10 -21z m70 5 c0 -5 -4 -9 -10
-9 -5 0 -10 7 -10 16 0 8 5 12 10 9 6 -3 10 -10 10 -16z m-329 -259 c35 -19
16 -100 -24 -100 -23 0 -57 31 -57 52 0 25 27 58 47 58 8 0 23 -5 34 -10z
m181 -7 c41 -37 3 -105 -50 -87 -20 7 -28 17 -30 40 -5 54 42 82 80 47z m166
-41 c3 -47 1 -52 -17 -52 -27 0 -64 37 -57 57 3 8 6 21 6 29 0 9 4 13 9 9 5
-3 13 -1 16 5 4 6 14 10 23 8 13 -2 18 -16 20 -56z m-1593 -271 c0 -31 -5 -46
-15 -49 -12 -4 -13 -2 -2 9 6 7 12 26 12 42 0 28 -2 29 -40 25 -22 -2 -40 -1
-40 3 0 14 17 20 50 17 34 -3 35 -4 35 -47z m-372 4 c15 -13 27 -28 27 -33 0
-8 -54 -52 -65 -52 -3 0 -5 25 -5 55 0 30 3 55 8 55 4 0 19 -12 35 -25z m604
14 c8 -8 16 -7 31 2 17 10 23 10 36 0 19 -16 21 -72 4 -89 -16 -16 -45 -15
-52 1 -5 10 -7 10 -12 0 -7 -16 -36 -17 -52 -1 -7 7 -12 26 -12 43 0 46 31 70
57 44z m-550 -66 c-2 -16 -4 -5 -4 22 0 28 2 40 4 28 2 -13 2 -35 0 -50z m281
9 c5 -52 -11 -61 -90 -53 -10 1 -10 75 -1 85 4 4 25 6 48 4 37 -3 40 -5 43
-36z"/>
<path d="M6906 5634 c-3 -8 -12 -11 -22 -7 -12 4 -15 3 -10 -6 4 -6 3 -18 -4
-26 -8 -10 -8 -15 0 -20 6 -4 9 -14 6 -22 -5 -11 -2 -13 9 -9 9 3 18 -1 22
-11 6 -14 7 -14 19 2 7 9 17 14 23 10 7 -3 11 2 11 14 0 12 4 21 9 21 16 0
-12 46 -35 57 -18 8 -24 7 -28 -3z m29 -49 c0 -11 -7 -21 -16 -23 -18 -3 -33
23 -23 39 10 17 39 5 39 -16z"/>
<path d="M6906 5591 c-4 -5 -2 -12 3 -15 5 -4 12 -2 15 3 4 5 2 12 -3 15 -5 4
-12 2 -15 -3z"/>
<path d="M7401 4954 c0 -11 3 -14 6 -6 3 7 2 16 -1 19 -3 4 -6 -2 -5 -13z"/>
<path d="M7640 4805 c-8 -9 -8 -15 -2 -15 12 0 26 19 19 26 -2 2 -10 -2 -17
-11z"/>
<path d="M7480 4650 c0 -5 5 -10 10 -10 6 0 10 5 10 10 0 6 -4 10 -10 10 -5 0
-10 -4 -10 -10z"/>
<path d="M7560 4660 c0 -5 5 -10 10 -10 6 0 10 5 10 10 0 6 -4 10 -10 10 -5 0
-10 -4 -10 -10z"/>
<path d="M7405 4340 c-3 -5 -1 -10 4 -10 6 0 11 5 11 10 0 6 -2 10 -4 10 -3 0
-8 -4 -11 -10z"/>
<path d="M2801 4184 c0 -11 3 -14 6 -6 3 7 2 16 -1 19 -3 4 -6 -2 -5 -13z"/>
<path d="M7331 4014 c0 -11 3 -14 6 -6 3 7 2 16 -1 19 -3 4 -6 -2 -5 -13z"/>
<path d="M7280 3549 c0 -5 5 -7 10 -4 6 3 10 8 10 11 0 2 -4 4 -10 4 -5 0 -10
-5 -10 -11z"/>
<path d="M7560 3570 c0 -5 5 -10 10 -10 6 0 10 5 10 10 0 6 -4 10 -10 10 -5 0
-10 -4 -10 -10z"/>
<path d="M7415 3400 c-3 -5 -1 -10 4 -10 6 0 11 5 11 10 0 6 -2 10 -4 10 -3 0
-8 -4 -11 -10z"/>
<path d="M7280 3399 c0 -5 5 -7 10 -4 6 3 10 8 10 11 0 2 -4 4 -10 4 -5 0 -10
-5 -10 -11z"/>
<path d="M7480 3410 c0 -5 5 -10 10 -10 6 0 10 5 10 10 0 6 -4 10 -10 10 -5 0
-10 -4 -10 -10z"/>
<path d="M7621 3404 c0 -11 3 -14 6 -6 3 7 2 16 -1 19 -3 4 -6 -2 -5 -13z"/>
<path d="M7280 3249 c0 -5 5 -7 10 -4 6 3 10 8 10 11 0 2 -4 4 -10 4 -5 0 -10
-5 -10 -11z"/>
<path d="M7415 3250 c-3 -5 -1 -10 4 -10 6 0 11 5 11 10 0 6 -2 10 -4 10 -3 0
-8 -4 -11 -10z"/>
<path d="M7285 3100 c-3 -5 -1 -10 4 -10 6 0 11 5 11 10 0 6 -2 10 -4 10 -3 0
-8 -4 -11 -10z"/>
<path d="M7400 3111 c0 -10 19 -25 25 -20 1 2 -3 10 -11 17 -8 7 -14 8 -14 3z"/>
<path d="M7480 3100 c0 -5 5 -10 10 -10 6 0 10 5 10 10 0 6 -4 10 -10 10 -5 0
-10 -4 -10 -10z"/>
<path d="M7331 2524 c0 -11 3 -14 6 -6 3 7 2 16 -1 19 -3 4 -6 -2 -5 -13z"/>
<path d="M7285 2070 c-3 -5 -1 -10 4 -10 6 0 11 5 11 10 0 6 -2 10 -4 10 -3 0
-8 -4 -11 -10z"/>
<path d="M7480 2070 c0 -5 5 -10 10 -10 6 0 10 5 10 10 0 6 -4 10 -10 10 -5 0
-10 -4 -10 -10z"/>
<path d="M7621 2074 c0 -11 3 -14 6 -6 3 7 2 16 -1 19 -3 4 -6 -2 -5 -13z"/>
<path d="M7640 1925 c-8 -9 -8 -15 -2 -15 12 0 26 19 19 26 -2 2 -10 -2 -17
-11z"/>
<path d="M7280 1609 c0 -5 5 -7 10 -4 6 3 10 8 10 11 0 2 -4 4 -10 4 -5 0 -10
-5 -10 -11z"/>
<path d="M7415 1460 c-3 -5 -1 -10 4 -10 6 0 11 5 11 10 0 6 -2 10 -4 10 -3 0
-8 -4 -11 -10z"/>
<path d="M7480 1470 c0 -5 5 -10 10 -10 6 0 10 5 10 10 0 6 -4 10 -10 10 -5 0
-10 -4 -10 -10z"/>
<path d="M7565 1480 c-3 -5 -1 -10 4 -10 6 0 11 5 11 10 0 6 -2 10 -4 10 -3 0
-8 -4 -11 -10z"/>
<path d="M7280 1459 c0 -5 5 -7 10 -4 6 3 10 8 10 11 0 2 -4 4 -10 4 -5 0 -10
-5 -10 -11z"/>
<path d="M7880 846 c4 -4 16 -4 26 2 16 9 14 10 -8 9 -15 -1 -23 -6 -18 -11z"/>
<path d="M8081 860 c-13 -11 -19 -20 -13 -20 10 0 42 27 42 36 0 7 -4 5 -29
-16z"/>
<path d="M8238 853 c7 -3 16 -2 19 1 4 3 -2 6 -13 5 -11 0 -14 -3 -6 -6z"/>
<path d="M6270 585 c0 -32 2 -35 19 -25 31 16 33 27 6 44 l-25 16 0 -35z"/>
<path d="M6864 606 c-8 -32 3 -66 22 -66 11 0 12 4 2 19 -9 15 -9 25 0 45 10
22 9 26 -3 26 -8 0 -17 -11 -21 -24z"/>
<path d="M6934 616 c-11 -29 1 -71 21 -74 16 -3 18 -1 8 9 -16 16 -17 51 -1
67 9 9 8 12 -5 12 -10 0 -20 -6 -23 -14z"/>
<path d="M6557 593 c-4 -3 -7 -19 -7 -35 0 -25 3 -28 35 -28 33 0 35 2 35 35
0 32 -3 35 -28 35 -16 0 -32 -3 -35 -7z"/>
<path d="M204 3026 c-62 -20 -102 -55 -132 -116 l-27 -55 0 -1320 0 -1320 24
-48 c25 -52 71 -92 128 -113 56 -20 3870 -20 3926 0 57 21 103 61 128 113 l24
48 3 1295 c2 897 -1 1311 -8 1347 -14 65 -58 126 -112 155 l-43 23 -1935 2
c-1550 1 -1943 -1 -1976 -11z m951 -236 c-3 -5 4 -11 17 -11 l23 -2 -23 -4
c-14 -3 -20 -9 -15 -16 4 -7 -1 -6 -10 2 -13 10 -15 17 -6 27 13 16 23 19 14
4z m2000 0 c5 -8 12 -7 23 2 14 10 15 10 5 -2 -10 -11 -10 -17 0 -29 10 -14
10 -14 -5 -3 -11 9 -18 10 -23 2 -3 -5 -11 -10 -17 -10 -7 0 -7 4 1 13 8 10 7
17 -1 25 -9 9 -9 12 -1 12 7 0 15 -5 18 -10z m-1015 -325 c0 -18 5 -25 19 -25
21 0 74 -39 54 -40 -8 0 -10 -7 -6 -17 6 -16 5 -16 -10 -4 -15 12 -17 11 -17
-4 0 -14 -3 -15 -15 -5 -8 6 -20 8 -27 4 -10 -6 -9 -3 1 9 7 9 25 17 40 17 25
1 25 1 7 15 -24 18 -57 19 -76 3 -12 -11 -12 -10 -2 4 10 13 10 17 0 22 -10 5
-10 7 0 12 6 3 12 12 12 20 0 8 5 14 10 14 6 0 10 -11 10 -25z m95 15 c3 -5
-1 -10 -9 -10 -9 0 -16 5 -16 10 0 6 4 10 9 10 6 0 13 -4 16 -10z m-145 -29
c0 -16 -7 -34 -15 -41 -8 -7 -14 -27 -13 -46 1 -19 -4 -40 -10 -46 -16 -16
-16 -88 1 -89 6 -1 22 0 35 1 19 1 23 -3 20 -21 -3 -26 -28 -39 -28 -15 0 9
-4 16 -9 16 -14 0 -21 -29 -9 -36 7 -5 5 -12 -7 -21 -28 -19 -38 -16 -62 20
-26 37 -29 55 -10 54 34 -1 48 4 41 15 -4 7 -7 53 -6 103 3 82 5 92 28 113 33
29 44 28 44 -7z m80 25 c0 -3 -4 -8 -10 -11 -5 -3 -10 -1 -10 4 0 6 5 11 10
11 6 0 10 -2 10 -4z m27 -28 c-3 -8 -6 -5 -6 6 -1 11 2 17 5 13 3 -3 4 -12 1
-19z m40 -14 c-3 -3 -12 -4 -19 -1 -8 3 -5 6 6 6 11 1 17 -2 13 -5z m89 -21
c7 -10 14 -30 14 -45 0 -16 4 -28 9 -28 17 0 23 -52 8 -68 -13 -13 -19 -13
-46 1 -17 9 -28 11 -25 5 4 -6 1 -9 -7 -6 -9 3 -15 23 -17 54 -2 27 -8 51 -13
53 -9 3 47 51 59 51 3 0 11 -8 18 -17z m-339 -70 c-3 -10 -5 -2 -5 17 0 19 2
27 5 18 2 -10 2 -26 0 -35z m259 15 c4 -7 3 -8 -4 -4 -17 10 -16 -46 1 -64 10
-12 9 -12 -5 -1 -12 9 -18 10 -18 2 0 -17 -46 -13 -60 5 -8 8 -9 14 -4 13 14
-4 64 23 59 31 -7 12 -59 -2 -71 -18 -9 -13 -12 -13 -17 1 -5 12 5 19 41 31
60 18 69 19 78 4z m-279 -30 c-3 -8 -6 -5 -6 6 -1 11 2 17 5 13 3 -3 4 -12 1
-19z m20 -45 c-3 -10 -5 -4 -5 12 0 17 2 24 5 18 2 -7 2 -21 0 -30z m95 -18
c-2 -14 -6 -25 -8 -25 -2 0 -4 11 -4 25 0 14 4 25 9 25 4 0 6 -11 3 -25z m271
-28 c3 -7 -2 -22 -10 -32 -12 -17 -15 -18 -23 -5 -11 18 -13 34 -3 43 11 11
31 8 36 -6z m-373 -267 c0 -5 -4 -10 -10 -10 -5 0 -10 5 -10 10 0 6 5 10 10
10 6 0 10 -4 10 -10z m69 -32 c0 -24 -3 -37 -6 -30 -2 6 -14 12 -26 11 -21 0
-21 -1 -3 -8 11 -4 15 -10 10 -14 -6 -3 -16 -2 -23 2 -7 4 -23 6 -37 3 -19 -3
-24 0 -24 17 0 11 -4 21 -10 21 -5 0 -10 -8 -10 -19 0 -24 -57 -35 -69 -13 -6
10 -10 11 -15 3 -4 -6 -18 -11 -32 -11 -21 0 -24 5 -24 35 0 31 3 35 25 35 14
0 29 -8 35 -20 6 -11 18 -20 28 -19 14 0 14 2 -2 8 -15 6 -16 10 -7 15 7 5 17
4 23 -2 7 -7 19 -7 34 -2 13 5 26 6 28 1 6 -9 42 -8 52 2 4 3 15 2 25 -4 16
-8 19 -6 19 11 0 11 2 20 5 20 3 0 5 -19 4 -42z m404 15 c-5 -12 -3 -14 11 -6
9 5 32 7 51 5 30 -4 33 -7 25 -22 -7 -13 -6 -20 3 -23 6 -2 -5 -6 -26 -9 -21
-2 -40 0 -43 4 -3 4 4 8 14 8 11 0 25 7 32 15 9 10 9 15 1 15 -6 0 -11 -4 -11
-10 0 -5 -7 -10 -15 -10 -9 0 -29 -7 -45 -15 -17 -9 -31 -11 -35 -5 -3 5 -12
7 -20 3 -10 -3 -15 2 -15 16 0 28 -17 27 -23 -1 -4 -20 -4 -20 -6 4 -1 29 15
40 41 27 10 -6 19 -5 23 1 4 6 11 8 16 5 5 -4 9 1 9 10 0 9 4 14 10 10 5 -3 6
-13 3 -22z m-347 -13 c8 0 14 7 14 15 0 8 5 15 10 15 6 0 10 -7 10 -16 0 -14
3 -14 15 -4 11 9 18 10 28 1 8 -6 16 -8 20 -5 12 12 68 10 79 -3 6 -7 18 -13
27 -12 10 0 12 2 3 6 -6 2 -10 9 -7 13 10 17 35 -2 35 -26 0 -21 -5 -24 -35
-24 -28 0 -35 4 -35 20 0 11 -4 20 -10 20 -5 0 -10 -9 -10 -20 0 -27 -18 -25
-23 3 -4 22 -4 22 -15 -3 -6 -14 -11 -19 -11 -12 -1 6 -11 12 -23 11 -21 0
-21 -1 -4 -8 11 -4 15 -10 10 -14 -6 -3 -16 -2 -24 3 -7 4 -19 6 -27 3 -7 -3
-13 2 -13 11 0 22 -27 20 -33 -1 -3 -10 -5 0 -5 22 0 22 2 32 5 23 2 -10 11
-18 19 -18z m-956 -400 c0 -5 -5 -10 -11 -10 -5 0 -7 5 -4 10 3 6 8 10 11 10
2 0 4 -4 4 -10z m65 0 c-3 -5 -12 -7 -20 -3 -8 3 -15 -1 -15 -8 0 -7 -3 -10
-6 -6 -10 10 6 27 27 27 11 0 18 -4 14 -10z m1329 -11 c-3 -5 -10 -7 -15 -3
-5 3 -7 10 -3 15 3 5 10 7 15 3 5 -3 7 -10 3 -15z m66 15 c0 -8 -19 -13 -24
-6 -3 5 1 9 9 9 8 0 15 -2 15 -3z m-710 -84 c0 -11 -7 -20 -15 -20 -8 0 -15 9
-15 20 0 11 7 20 15 20 8 0 15 -9 15 -20z m53 14 c3 -3 3 -13 0 -22 -6 -13 -8
-13 -14 4 -7 17 -8 17 -8 1 -1 -10 -5 -16 -11 -12 -5 3 -7 12 -3 20 5 15 25
20 36 9z m47 -15 c0 -12 -6 -16 -18 -12 -10 2 -19 11 -19 18 0 7 9 13 19 12
10 -1 18 -9 18 -18z m41 12 c6 10 9 8 9 -8 0 -16 -5 -20 -19 -16 -13 3 -18 10
-13 21 4 12 7 13 10 3 4 -11 6 -11 13 0z m99 -14 c0 -20 -1 -20 -14 -2 -12 17
-14 17 -23 1 -10 -19 -43 -12 -43 9 0 9 13 14 40 13 34 0 40 -4 40 -21z m53 9
c7 -16 -1 -26 -20 -26 -7 0 -13 9 -13 20 0 23 25 27 33 6z m47 -5 c0 -28 -17
-35 -29 -13 -11 21 -6 32 16 32 7 0 13 -9 13 -19z m-703 -147 c-3 -3 -12 -4
-19 -1 -8 3 -5 6 6 6 11 1 17 -2 13 -5z m353 -34 c0 -5 -4 -10 -10 -10 -5 0
-10 5 -10 10 0 6 5 10 10 10 6 0 10 -4 10 -10z m30 0 c0 -5 -2 -10 -4 -10 -3
0 -8 5 -11 10 -3 6 -1 10 4 10 6 0 11 -4 11 -10z m30 0 c0 -5 -4 -10 -10 -10
-5 0 -10 5 -10 10 0 6 5 10 10 10 6 0 10 -4 10 -10z m80 4 c0 -8 -19 -13 -24
-6 -3 5 1 9 9 9 8 0 15 -2 15 -3z m30 -4 c0 -5 -4 -10 -10 -10 -5 0 -10 5 -10
10 0 6 5 10 10 10 6 0 10 -4 10 -10z m25 0 c3 -5 1 -10 -4 -10 -6 0 -11 5 -11
10 0 6 2 10 4 10 3 0 8 -4 11 -10z m45 -11 c0 -5 -4 -9 -10 -9 -5 0 -10 7 -10
16 0 8 5 12 10 9 6 -3 10 -10 10 -16z m30 11 c0 -5 -4 -10 -10 -10 -5 0 -10 5
-10 10 0 6 5 10 10 10 6 0 10 -4 10 -10z m147 4 c-3 -3 -12 -4 -19 -1 -8 3 -5
6 6 6 11 1 17 -2 13 -5z m-247 -60 c0 -8 -5 -12 -10 -9 -6 4 -8 11 -5 16 9 14
15 11 15 -7z m40 -5 c0 -5 -4 -9 -10 -9 -5 0 -10 7 -10 16 0 8 5 12 10 9 6 -3
10 -10 10 -16z m30 11 c0 -5 -4 -10 -10 -10 -5 0 -10 5 -10 10 0 6 5 10 10 10
6 0 10 -4 10 -10z m91 -13 c-10 -9 -11 -8 -5 6 3 10 9 15 12 12 3 -3 0 -11 -7
-18z m77 -2 c-3 -3 -9 2 -12 12 -6 14 -5 15 5 6 7 -7 10 -15 7 -18z m112 9 c0
-8 -4 -12 -10 -9 -5 3 -10 10 -10 16 0 5 5 9 10 9 6 0 10 -7 10 -16z m-75 -4
c3 -5 1 -10 -4 -10 -6 0 -11 5 -11 10 0 6 2 10 4 10 3 0 8 -4 11 -10z m772
-42 c-3 -8 -6 -5 -6 6 -1 11 2 17 5 13 3 -3 4 -12 1 -19z m-1387 2 c0 -5 -2
-10 -4 -10 -3 0 -8 5 -11 10 -3 6 -1 10 4 10 6 0 11 -4 11 -10z m-37 -15 c-3
-9 -8 -14 -10 -11 -3 3 -2 9 2 15 9 16 15 13 8 -4z m-443 -321 c0 -24 -4 -31
-17 -30 -35 2 -37 62 -2 62 15 0 19 -7 19 -32z m60 7 c0 -25 -3 -28 -25 -23
-14 2 -25 9 -25 14 0 5 9 6 20 3 16 -5 20 -2 20 14 0 12 2 21 5 21 3 0 5 -13
5 -29z m60 -3 c0 -18 -4 -28 -8 -23 -4 6 -14 10 -22 10 -8 0 -15 6 -15 14 0 8
7 16 15 18 13 4 13 3 0 -6 -8 -5 -11 -13 -8 -16 4 -4 13 2 20 14 17 28 18 27
18 -11z m79 0 c0 -27 -2 -29 -8 -13 -5 11 -6 26 -4 33 8 21 13 13 12 -20z m61
2 c0 -26 -2 -28 -22 -21 -32 11 -35 38 -6 44 13 2 24 5 26 6 1 0 2 -12 2 -29z
m60 -1 c0 -23 -3 -26 -25 -21 -14 2 -22 8 -20 13 3 4 13 6 23 3 14 -5 14 -4 2
4 -8 6 -18 8 -22 6 -4 -3 -8 -1 -8 4 0 13 7 18 30 18 15 0 20 -7 20 -27z
m1070 14 c0 -7 7 -13 16 -13 8 0 12 5 9 10 -3 6 -1 10 5 10 7 0 10 -7 6 -15
-3 -8 -1 -15 4 -15 6 0 10 10 10 23 0 12 4 17 8 11 8 -12 52 -14 52 -1 0 4 5
5 10 2 6 -3 10 -17 10 -31 0 -13 -4 -24 -10 -24 -5 0 -10 3 -10 8 0 4 -11 8
-25 8 -14 1 -25 -2 -25 -7 0 -5 -12 -4 -26 1 -33 13 -34 13 -34 -4 0 -9 -7
-12 -20 -9 -14 4 -20 14 -20 32 0 20 5 27 20 27 11 0 20 -6 20 -13z m199 -15
c0 -27 -2 -29 -8 -13 -5 11 -6 26 -4 33 8 21 13 13 12 -20z m61 1 c0 -22 -4
-26 -20 -22 -39 10 -39 49 -1 49 16 0 21 -6 21 -27z m53 23 c3 7 6 -1 6 -18 1
-28 -2 -31 -24 -26 -22 4 -24 7 -13 20 10 12 10 14 1 8 -7 -4 -13 -3 -13 2 0
16 13 22 26 11 8 -7 14 -6 17 3z m-1663 -12 c0 -5 -2 -10 -4 -10 -3 0 -8 5
-11 10 -3 6 -1 10 4 10 6 0 11 -4 11 -10z m137 -8 c1 -10 -4 -19 -11 -19 -6 0
-12 9 -12 19 0 10 5 18 11 18 6 0 11 -8 12 -18z m1390 0 c1 -10 -4 -19 -11
-19 -6 0 -12 9 -12 19 0 10 5 18 11 18 6 0 11 -8 12 -18z m-1570 -95 c1 -21
-2 -26 -17 -24 -23 4 -39 17 -21 17 7 0 9 5 6 10 -3 6 -3 15 0 21 11 17 30 4
32 -24z m39 12 c3 -22 7 -22 14 1 8 22 9 21 7 -10 -1 -20 -7 -35 -14 -35 -7 0
-13 4 -12 9 0 5 -4 12 -10 16 -7 3 -9 14 -5 24 6 16 18 14 20 -5z m1348 -3
c-1 -9 3 -16 9 -16 17 0 -2 -14 -23 -17 -15 -2 -18 3 -16 25 5 35 4 34 19 29
6 -2 11 -12 11 -21z m73 -11 c-2 -22 -9 -30 -23 -30 -10 0 -18 6 -16 13 1 6
-2 12 -7 12 -5 0 -7 8 -5 18 3 10 15 17 30 17 21 0 24 -4 21 -30z m-1547 -195
c0 -5 -5 -10 -11 -10 -5 0 -7 5 -4 10 3 6 8 10 11 10 2 0 4 -4 4 -10z m65 0
c-3 -5 -12 -7 -20 -3 -8 3 -15 -1 -15 -8 0 -7 -3 -10 -6 -6 -10 10 6 27 27 27
11 0 18 -4 14 -10z m635 1 c0 -6 -4 -13 -10 -16 -5 -3 -10 1 -10 9 0 9 5 16
10 16 6 0 10 -4 10 -9z m33 -6 c-3 -9 -8 -14 -10 -11 -3 3 -2 9 2 15 9 16 15
13 8 -4z m-368 -275 c5 1 10 -3 11 -9 2 -7 0 -7 -2 -2 -3 6 -12 7 -20 4 -10
-3 -14 2 -13 18 0 20 1 21 8 6 4 -10 11 -18 16 -17z m682 -2 c-3 -7 -5 -2 -5
12 0 14 2 19 5 13 2 -7 2 -19 0 -25z m43 2 c-8 -5 -19 -10 -25 -10 -5 0 -3 5
5 10 8 5 20 10 25 10 6 0 3 -5 -5 -10z"/>
<path d="M2307 2383 c-13 -12 -7 -33 8 -33 8 0 15 9 15 20 0 20 -11 26 -23 13z"/>
<path d="M2185 2300 c-3 -5 -1 -10 4 -10 6 0 11 5 11 10 0 6 -2 10 -4 10 -3 0
-8 -4 -11 -10z"/>
<path d="M1800 1935 c0 -17 5 -25 13 -22 6 2 12 12 12 22 0 10 -6 20 -12 23
-8 2 -13 -6 -13 -23z"/>
<path d="M2420 1925 c0 -8 5 -15 10 -15 6 0 10 7 10 15 0 8 -4 15 -10 15 -5 0
-10 -7 -10 -15z"/>
<path d="M2710 850 c0 -5 5 -10 10 -10 6 0 10 5 10 10 0 6 -4 10 -10 10 -5 0
-10 -4 -10 -10z"/>
</g>
</svg>
