<?xml version="1.0" standalone="no"?>
<!DOCTYPE svg PUBLIC "-//W3C//DTD SVG 20010904//EN"
 "http://www.w3.org/TR/2001/REC-SVG-20010904/DTD/svg10.dtd">
<svg version="1.0" xmlns="http://www.w3.org/2000/svg"
 width="80.000000pt" height="150.000000pt" viewBox="0 0 80.000000 150.000000"
 preserveAspectRatio="xMidYMid meet">

<g transform="translate(0.000000,150.000000) scale(0.100000,-0.100000)"
fill="#000000" stroke="none">
<path d="M482 1393 c-27 -49 -144 -258 -261 -465 l-211 -377 0 -150 0 -151
315 0 315 0 0 -115 0 -115 80 0 80 0 0 730 0 730 -134 0 -135 0 -49 -87z m158
-578 l0 -265 -145 0 c-102 0 -145 3 -145 11 0 13 279 519 286 519 2 0 4 -119
4 -265z"/>
</g>
</svg>
