<?xml version="1.0" standalone="no"?>
<!DOCTYPE svg PUBLIC "-//W3C//DTD SVG 20010904//EN"
 "http://www.w3.org/TR/2001/REC-SVG-20010904/DTD/svg10.dtd">
<svg version="1.0" xmlns="http://www.w3.org/2000/svg"
 width="80.000000pt" height="150.000000pt" viewBox="0 0 80.000000 150.000000"
 preserveAspectRatio="xMidYMid meet">

<g transform="translate(0.000000,150.000000) scale(0.100000,-0.100000)"
fill="#000000" stroke="none">
<path d="M424 1466 c-148 -34 -280 -136 -322 -249 -67 -177 21 -371 192 -427
l40 -13 -61 -22 c-71 -25 -107 -49 -157 -105 -61 -67 -80 -121 -80 -225 0 -78
3 -97 27 -146 55 -114 196 -211 357 -245 87 -18 256 -14 330 8 l45 14 3 692 2
691 -52 16 c-73 23 -247 28 -324 11z m213 -275 c77 -36 109 -150 61 -221 -38
-55 -73 -75 -133 -75 -85 0 -144 56 -152 142 -10 95 60 173 152 173 17 0 49
-9 72 -19z m30 -577 c48 -36 66 -70 71 -133 4 -51 1 -67 -22 -105 -59 -102
-199 -115 -279 -26 -78 85 -55 223 45 274 46 23 148 18 185 -10z"/>
</g>
</svg>
