<?xml version="1.0" standalone="no"?>
<!DOCTYPE svg PUBLIC "-//W3C//DTD SVG 20010904//EN"
 "http://www.w3.org/TR/2001/REC-SVG-20010904/DTD/svg10.dtd">
<svg version="1.0" xmlns="http://www.w3.org/2000/svg"
 width="80.000000pt" height="150.000000pt" viewBox="0 0 80.000000 150.000000"
 preserveAspectRatio="xMidYMid meet">

<g transform="translate(0.000000,150.000000) scale(0.100000,-0.100000)"
fill="#000000" stroke="none">
<path d="M653 1461 c-65 -22 -117 -61 -157 -118 l-31 -45 -3 81 -3 81 -112 0
-112 0 -113 -106 -112 -106 0 -160 0 -159 95 88 c53 48 100 90 105 91 6 2 10
-196 10 -532 l0 -536 120 0 120 0 0 83 1 82 21 -30 c69 -96 171 -155 268 -155
l50 0 0 155 0 155 -25 -6 c-40 -10 -83 14 -111 61 -49 84 -73 300 -55 492 14
142 41 232 83 274 27 27 37 30 70 26 l38 -5 0 154 0 154 -47 0 c-27 -1 -71 -9
-100 -19z"/>
</g>
</svg>
