<?xml version="1.0" standalone="no"?>
<!DOCTYPE svg PUBLIC "-//W3C//DTD SVG 20010904//EN"
 "http://www.w3.org/TR/2001/REC-SVG-20010904/DTD/svg10.dtd">
<svg version="1.0" xmlns="http://www.w3.org/2000/svg"
 width="80.000000pt" height="150.000000pt" viewBox="0 0 80.000000 150.000000"
 preserveAspectRatio="xMidYMid meet">

<g transform="translate(0.000000,150.000000) scale(0.100000,-0.100000)"
fill="#000000" stroke="none">
<path d="M422 1465 c-131 -29 -246 -101 -308 -191 -37 -54 -74 -156 -74 -205
l0 -29 175 0 c172 0 175 0 175 21 0 66 87 129 176 129 77 -1 131 -30 155 -86
28 -62 19 -106 -30 -155 -45 -46 -91 -59 -203 -59 l-88 0 0 -130 0 -130 98 0
c118 0 163 -12 208 -53 104 -95 20 -257 -134 -257 -85 0 -176 58 -188 119 l-6
31 -186 0 -185 0 6 -48 c22 -185 184 -341 402 -387 107 -22 269 -18 368 11 16
5 17 45 15 702 l-3 696 -45 14 c-67 20 -252 25 -328 7z"/>
</g>
</svg>
