<?xml version="1.0" standalone="no"?>
<!DOCTYPE svg PUBLIC "-//W3C//DTD SVG 20010904//EN"
 "http://www.w3.org/TR/2001/REC-SVG-20010904/DTD/svg10.dtd">
<svg version="1.0" xmlns="http://www.w3.org/2000/svg"
 width="80.000000pt" height="150.000000pt" viewBox="0 0 80.000000 150.000000"
 preserveAspectRatio="xMidYMid meet">

<g transform="translate(0.000000,150.000000) scale(0.100000,-0.100000)"
fill="#000000" stroke="none">
<path d="M100 1478 c0 -2 -14 -194 -30 -427 -17 -234 -30 -426 -30 -428 0 -2
71 -3 158 -3 l159 0 32 40 c45 56 83 73 162 73 110 0 175 -52 199 -158 17 -78
-7 -172 -57 -217 -56 -51 -160 -62 -233 -26 -49 25 -90 77 -90 114 l0 24 -181
0 -182 0 7 -51 c25 -188 181 -339 397 -385 91 -19 237 -14 327 11 l62 18 0
462 0 462 -37 7 c-133 22 -258 -10 -336 -85 -28 -27 -51 -49 -52 -49 0 0 5 62
12 138 6 75 12 147 13 160 l0 22 200 0 200 0 0 150 0 150 -350 0 c-192 0 -350
-1 -350 -2z"/>
</g>
</svg>
