<?xml version="1.0" standalone="no"?>
<!DOCTYPE svg PUBLIC "-//W3C//DTD SVG 20010904//EN"
 "http://www.w3.org/TR/2001/REC-SVG-20010904/DTD/svg10.dtd">
<svg version="1.0" xmlns="http://www.w3.org/2000/svg"
 width="80.000000pt" height="150.000000pt" viewBox="0 0 80.000000 150.000000"
 preserveAspectRatio="xMidYMid meet">

<g transform="translate(0.000000,150.000000) scale(0.100000,-0.100000)"
fill="#000000" stroke="none">
<path d="M377 1464 c-182 -44 -308 -171 -352 -356 -40 -170 -1 -348 102 -458
73 -79 141 -112 242 -118 142 -8 253 44 324 152 l39 61 -7 -80 c-20 -237 -100
-342 -245 -322 -53 7 -94 39 -114 87 l-16 40 -159 0 c-88 0 -162 -3 -164 -7
-9 -15 33 -156 60 -202 67 -115 191 -205 320 -232 114 -23 265 2 361 61 l32
20 0 649 0 649 -62 26 c-35 14 -83 30 -108 36 -63 13 -184 11 -253 -6z m234
-297 c69 -46 104 -154 79 -243 -46 -165 -257 -189 -330 -38 -47 97 -21 226 57
279 52 34 144 36 194 2z"/>
</g>
</svg>
