<?xml version="1.0" standalone="no"?>
<!DOCTYPE svg PUBLIC "-//W3C//DTD SVG 20010904//EN"
 "http://www.w3.org/TR/2001/REC-SVG-20010904/DTD/svg10.dtd">
<svg version="1.0" xmlns="http://www.w3.org/2000/svg"
 width="80.000000pt" height="150.000000pt" viewBox="0 0 80.000000 150.000000"
 preserveAspectRatio="xMidYMid meet">

<g transform="translate(0.000000,150.000000) scale(0.100000,-0.100000)"
fill="#000000" stroke="none">
<path d="M356 1464 c-126 -30 -235 -114 -290 -222 -30 -58 -56 -159 -56 -214
l0 -38 158 0 158 0 12 60 c15 70 53 114 114 130 62 17 117 4 160 -39 66 -67
73 -161 19 -257 -27 -47 -203 -222 -507 -504 l-92 -85 -1 -137 -1 -138 385 0
385 0 0 150 0 150 -143 0 c-79 0 -146 2 -149 5 -3 3 62 71 143 152 l149 147 0
392 0 392 -49 21 c-117 50 -275 64 -395 35z"/>
</g>
</svg>
