<?xml version="1.0" standalone="no"?>
<!DOCTYPE svg PUBLIC "-//W3C//DTD SVG 20010904//EN"
 "http://www.w3.org/TR/2001/REC-SVG-20010904/DTD/svg10.dtd">
<svg version="1.0" xmlns="http://www.w3.org/2000/svg"
 width="80.000000pt" height="150.000000pt" viewBox="0 0 80.000000 150.000000"
 preserveAspectRatio="xMidYMid meet">

<g transform="translate(0.000000,150.000000) scale(0.100000,-0.100000)"
fill="#000000" stroke="none">
<path d="M445 1466 c-262 -69 -415 -309 -432 -678 -20 -419 130 -685 424 -754
85 -20 225 -14 303 12 l55 19 0 450 0 450 -50 9 c-140 26 -312 -53 -374 -172
l-20 -37 0 55 c-1 30 6 85 13 121 34 159 115 233 238 216 51 -7 87 -32 113
-80 17 -31 25 -37 53 -37 l32 0 -2 197 -3 196 -55 20 c-70 24 -226 32 -295 13z
m205 -766 c25 -13 49 -37 67 -67 24 -40 28 -59 28 -118 -1 -122 -58 -194 -161
-203 -68 -6 -95 1 -135 35 -105 89 -86 298 33 356 46 23 120 21 168 -3z"/>
</g>
</svg>
