<svg width="24" height="24" viewBox="0 0 24 24" fill="none" xmlns="http://www.w3.org/2000/svg">
<path d="M19.3647 8.25901C20.4213 9.91726 20.8867 11.8839 20.6853 13.8398C20.4838 15.7957 19.6275 17.6262 18.2551 19.0344C16.8827 20.4425 15.0749 21.3456 13.1247 21.5972C11.1746 21.8489 9.19672 21.4343 7.51185 20.4206C5.82698 19.407 4.53401 17.8538 3.84269 16.0131C3.15137 14.1724 3.10226 12.152 3.70332 10.2799C4.30438 8.40775 5.52035 6.79359 7.15398 5.69929C8.78761 4.60499 10.743 4.09474 12.7031 4.25132" stroke="white"/>
<path d="M9.85129 17.3844H8.92944V11.6136C8.92944 11.39 8.92944 11.2011 8.92944 11.0469C8.93659 10.8927 8.94374 10.7501 8.95088 10.619C8.95803 10.4803 8.96517 10.3376 8.97232 10.1912C8.85798 10.3145 8.75436 10.4186 8.66147 10.5034C8.56857 10.5882 8.45066 10.6961 8.30773 10.8272L7.49308 11.5442L7 10.8619L9.06879 9.12721H9.85129V17.3844Z" fill="white"/>
<path d="M16.5 13.2442C16.5 13.915 16.4536 14.5125 16.3607 15.0367C16.2678 15.561 16.1177 16.0082 15.9104 16.3782C15.7104 16.7406 15.446 17.0181 15.1172 17.2109C14.7957 17.4036 14.4062 17.5 13.9488 17.5C13.3772 17.5 12.9019 17.3304 12.5232 16.9912C12.1516 16.6519 11.8729 16.1662 11.6871 15.534C11.5085 14.8941 11.4191 14.1308 11.4191 13.2442C11.4191 12.3499 11.5013 11.5866 11.6657 10.9544C11.8372 10.3222 12.1087 9.84036 12.4803 9.50884C12.8519 9.16961 13.3414 9 13.9488 9C14.5205 9 14.9957 9.16961 15.3745 9.50884C15.7532 9.84036 16.0355 10.3222 16.2213 10.9544C16.4071 11.5866 16.5 12.3499 16.5 13.2442ZM12.3624 13.2442C12.3624 13.9998 12.4124 14.6281 12.5125 15.1293C12.6197 15.6304 12.7876 16.0082 13.0163 16.2626C13.2521 16.5093 13.563 16.6327 13.9488 16.6327C14.3347 16.6327 14.642 16.5093 14.8707 16.2626C15.1065 16.0159 15.278 15.642 15.3852 15.1408C15.4924 14.632 15.546 13.9998 15.546 13.2442C15.546 12.4887 15.4924 11.8642 15.3852 11.3707C15.278 10.8696 15.1065 10.4957 14.8707 10.249C14.642 9.99456 14.3347 9.86735 13.9488 9.86735C13.563 9.86735 13.2521 9.99456 13.0163 10.249C12.7876 10.4957 12.6197 10.8696 12.5125 11.3707C12.4124 11.8642 12.3624 12.4887 12.3624 13.2442Z" fill="white"/>
<path d="M11 2L13.2687 4.26872L11 6.53744" stroke="white"/>
<path d="M14 2L16.2687 4.26872L14 6.53744" stroke="white"/>
</svg>
