<svg width="24" height="24" viewBox="0 0 24 24" fill="none" xmlns="http://www.w3.org/2000/svg">
<path d="M5.24672 7.69693C4.27672 9.21926 3.84952 11.0247 4.03442 12.8203C4.21933 14.6159 5.00549 16.2963 6.26537 17.589C7.52526 18.8818 9.18495 19.7109 10.9752 19.9419C12.7655 20.1729 14.5813 19.7922 16.128 18.8617C17.6748 17.9311 18.8618 16.5053 19.4964 14.8154C20.1311 13.1256 20.1762 11.2709 19.6244 9.55217C19.0726 7.83347 17.9563 6.35163 16.4566 5.34702C14.9569 4.34242 13.1617 3.87399 11.3623 4.01774" stroke="white"/>
<path d="M10.4011 15.9048H9.6248V11.1524C9.6248 10.9683 9.6248 10.8127 9.6248 10.6857C9.63081 10.5587 9.63683 10.4413 9.64285 10.3333C9.64887 10.219 9.65488 10.1016 9.6609 9.98095C9.56462 10.0825 9.47736 10.1683 9.39913 10.2381C9.3209 10.3079 9.22161 10.3968 9.10125 10.5048L8.41523 11.0952L8 10.5333L9.74214 9.10476H10.4011V15.9048Z" fill="white"/>
<path d="M16 12.4952C16 13.0476 15.9609 13.5397 15.8827 13.9714C15.8044 14.4032 15.678 14.7714 15.5035 15.0762C15.335 15.3746 15.1124 15.6032 14.8356 15.7619C14.5648 15.9206 14.2368 16 13.8517 16C13.3702 16 12.9701 15.8603 12.6511 15.581C12.3382 15.3016 12.1035 14.9016 11.947 14.381C11.7966 13.854 11.7214 13.2254 11.7214 12.4952C11.7214 11.7587 11.7906 11.1302 11.929 10.6095C12.0734 10.0889 12.3021 9.69206 12.615 9.41905C12.9279 9.13968 13.3402 9 13.8517 9C14.3331 9 14.7333 9.13968 15.0522 9.41905C15.3711 9.69206 15.6088 10.0889 15.7653 10.6095C15.9218 11.1302 16 11.7587 16 12.4952ZM12.5157 12.4952C12.5157 13.1175 12.5578 13.6349 12.6421 14.0476C12.7324 14.4603 12.8738 14.7714 13.0663 14.981C13.2649 15.1841 13.5267 15.2857 13.8517 15.2857C14.1766 15.2857 14.4354 15.1841 14.628 14.981C14.8265 14.7778 14.971 14.4698 15.0612 14.0571C15.1515 13.6381 15.1966 13.1175 15.1966 12.4952C15.1966 11.873 15.1515 11.3587 15.0612 10.9524C14.971 10.5397 14.8265 10.2317 14.628 10.0286C14.4354 9.81905 14.1766 9.71429 13.8517 9.71429C13.5267 9.71429 13.2649 9.81905 13.0663 10.0286C12.8738 10.2317 12.7324 10.5397 12.6421 10.9524C12.5578 11.3587 12.5157 11.873 12.5157 12.4952Z" fill="white"/>
<path d="M13 2L10.7313 4.26872L13 6.53744" stroke="white"/>
<path d="M10 2L7.73128 4.26872L10 6.53744" stroke="white"/>
</svg>
