<svg width="24" height="24" viewBox="0 0 24 24" fill="none" xmlns="http://www.w3.org/2000/svg">
<path d="M4.65238 8.25901C3.59577 9.91726 3.13042 11.8839 3.33184 13.8398C3.53325 15.7957 4.38961 17.6262 5.76198 19.0344C7.13436 20.4425 8.94224 21.3456 10.8923 21.5972C12.8424 21.8489 14.8204 21.4343 16.5052 20.4206C18.1901 19.407 19.4831 17.8538 20.1744 16.0131C20.8657 14.1724 20.9148 12.152 20.3138 10.2799C19.7127 8.40775 18.4967 6.79359 16.8631 5.69929C15.2295 4.60499 13.274 4.09474 11.314 4.25132" stroke="white"/>
<path d="M9.85129 17.3844H8.92944V11.6136C8.92944 11.39 8.92944 11.2011 8.92944 11.0469C8.93659 10.8927 8.94374 10.7501 8.95088 10.619C8.95803 10.4803 8.96517 10.3376 8.97232 10.1912C8.85798 10.3145 8.75436 10.4186 8.66147 10.5034C8.56857 10.5882 8.45066 10.6961 8.30773 10.8272L7.49308 11.5442L7 10.8619L9.06879 9.12721H9.85129V17.3844Z" fill="white"/>
<path d="M16.5 13.2442C16.5 13.915 16.4536 14.5125 16.3607 15.0367C16.2678 15.561 16.1177 16.0082 15.9104 16.3782C15.7104 16.7406 15.446 17.0181 15.1172 17.2109C14.7957 17.4036 14.4062 17.5 13.9488 17.5C13.3772 17.5 12.9019 17.3304 12.5232 16.9912C12.1516 16.6519 11.8729 16.1662 11.6871 15.534C11.5085 14.8941 11.4191 14.1308 11.4191 13.2442C11.4191 12.3499 11.5013 11.5866 11.6657 10.9544C11.8372 10.3222 12.1087 9.84036 12.4803 9.50884C12.8519 9.16961 13.3414 9 13.9488 9C14.5205 9 14.9957 9.16961 15.3745 9.50884C15.7532 9.84036 16.0355 10.3222 16.2213 10.9544C16.4071 11.5866 16.5 12.3499 16.5 13.2442ZM12.3624 13.2442C12.3624 13.9998 12.4124 14.6281 12.5125 15.1293C12.6197 15.6304 12.7876 16.0082 13.0163 16.2626C13.2521 16.5093 13.563 16.6327 13.9488 16.6327C14.3347 16.6327 14.642 16.5093 14.8707 16.2626C15.1065 16.0159 15.278 15.642 15.3852 15.1408C15.4924 14.632 15.546 13.9998 15.546 13.2442C15.546 12.4887 15.4924 11.8642 15.3852 11.3707C15.278 10.8696 15.1065 10.4957 14.8707 10.249C14.642 9.99456 14.3347 9.86735 13.9488 9.86735C13.563 9.86735 13.2521 9.99456 13.0163 10.249C12.7876 10.4957 12.6197 10.8696 12.5125 11.3707C12.4124 11.8642 12.3624 12.4887 12.3624 13.2442Z" fill="white"/>
<path d="M13.0171 2L10.7484 4.26872L13.0171 6.53744" stroke="white"/>
<path d="M10.0171 2L7.74837 4.26872L10.0171 6.53744" stroke="white"/>
</svg>
