<svg width="70" height="130" viewBox="0 0 70 130" fill="none" xmlns="http://www.w3.org/2000/svg">
<g clip-path="url(#clip0_90_5098)">
<path d="M1 88.7398H0.496527L0.500012 89.2432C0.662878 112.77 19.8941 129.5 46.5986 129.5C60.7606 129.5 72.4928 124.796 80.6866 116.735C88.8805 108.675 93.5 97.2933 93.5 84.0082C93.5 59.7214 77.9142 42.5272 56.7138 42.5272C45.3981 42.5272 35.9709 47.6472 31.9294 54.9638L34.2134 28.0068H85.7749H86.2749V27.5068V1V0.5H85.7749H8.54625H8.07826L8.04734 0.966961L3.07003 76.1277L3.03473 76.6608H3.56894H30.7033H31.0236L31.1575 76.3698C32.5731 73.2947 34.4856 70.8478 36.9997 69.1884C39.5112 67.5307 42.659 66.6352 46.5877 66.7206V66.7207H46.5986C51.448 66.7207 55.5646 68.5016 58.4522 71.659C61.3421 74.8189 63.0361 79.3968 62.9573 85.0475L62.9572 85.0546L62.9573 85.0617C63.036 90.5344 61.3442 95.0699 58.4522 98.232C55.5624 101.392 51.4446 103.214 46.5986 103.214C38.3112 103.214 31.5128 97.802 31.203 89.2217L31.1856 88.7398H30.7033H1Z" fill="black" stroke="white"/>
</g>
<defs>
<clipPath id="clip0_90_5098">
<rect width="70" height="130" fill="white"/>
</clipPath>
</defs>
</svg>
