<svg width="70" height="130" viewBox="0 0 70 130" fill="none" xmlns="http://www.w3.org/2000/svg">
<g clip-path="url(#clip0_90_5099)">
<path d="M0.500819 66.5464L0.500819 66.5466C0.421241 89.3364 6.15096 105.086 15.3011 115.143C24.4557 125.204 36.973 129.5 50.3243 129.5C63.9158 129.5 75.4652 125.032 83.6198 117.166C91.7761 109.299 96.5 98.0676 96.5 84.6129C96.5 73.0708 92.9395 63.0559 86.7225 55.9189C80.5008 48.7766 71.64 44.543 61.1088 44.543C48.0851 44.543 36.3836 51.1994 31.4801 62.3034C31.5745 52.3726 33.1189 44.2146 36.1934 38.5059C39.351 32.643 44.1116 29.371 50.6415 29.371C54.0508 29.371 57.1159 30.2115 59.512 31.9031C61.9016 33.59 63.6588 36.1459 64.4267 39.6448L64.513 40.0376H64.9151H94.5726H95.1196L95.0706 39.4928C93.1445 18.0758 75.9604 0.5 50.6415 0.5C35.4988 0.5 22.981 6.85185 14.2425 18.3097C5.5144 29.754 0.580406 46.2577 0.500819 66.5464ZM66.1597 85.8172C66.1597 96.0846 59.3588 103.554 50.1657 103.554C40.9725 103.554 34.1717 96.0846 34.1717 85.8172C34.1717 75.3745 40.9755 67.9086 50.1657 67.9086C59.5115 67.9086 66.1597 75.3712 66.1597 85.8172Z" fill="black" stroke="white"/>
</g>
<defs>
<clipPath id="clip0_90_5099">
<rect width="70" height="130" fill="white"/>
</clipPath>
</defs>
</svg>
