<svg width="70" height="130" viewBox="0 0 70 130" fill="none" xmlns="http://www.w3.org/2000/svg">
<g clip-path="url(#clip0_90_5103)">
<path d="M8.55142 128V128.5H9.05142H96H96.5V128V101.736V101.236H96H51.4005L62.7257 90.6033C62.7265 90.6026 62.7274 90.6018 62.7282 90.601C88.4617 67.0721 95.2376 54.7559 95.2376 40.109C95.2376 28.4731 90.8427 18.8036 83.0121 12.0498C75.1887 5.30233 63.9778 1.5 50.3954 1.5C37.1966 1.5 26.2148 5.52347 18.5293 12.8608C10.841 20.2007 6.5 30.8107 6.5 43.8856V44.3856H7H35.5621H36.0621V43.8856C36.0621 38.6561 37.5342 34.6255 40.033 31.9072C42.528 29.1931 46.0946 27.7343 50.3954 27.7343C54.6982 27.7343 58.3517 29.195 60.9288 31.7922C63.5054 34.3891 65.0443 38.1611 65.0443 42.8556C65.0443 51.5376 59.8557 57.2363 51.1611 65.319C51.1606 65.3195 51.1601 65.32 51.1596 65.3204L8.7141 104.113L8.55142 104.262V104.482V128Z" fill="black" stroke="white"/>
</g>
<defs>
<clipPath id="clip0_90_5103">
<rect width="70" height="130" fill="white"/>
</clipPath>
</defs>
</svg>
