<svg width="70" height="130" viewBox="0 0 70 130" fill="none" xmlns="http://www.w3.org/2000/svg">
<g clip-path="url(#clip0_90_5095)">
<path d="M97.5 62.9355V62.9337C97.4196 40.4006 91.588 24.7804 82.3625 14.7898C73.1332 4.79521 60.5673 0.5 47.1575 0.5C33.3464 0.5 21.6373 4.9666 13.3974 12.8099C5.15488 20.6556 0.420132 31.8459 0.50102 45.2181L0.501023 45.2186C0.58187 56.6746 4.18037 66.6035 10.4429 73.6756C16.7102 80.7528 25.6221 84.9409 36.2594 84.9409C49.554 84.9409 61.5009 78.3116 66.2035 66.8139C66.0676 77.1655 64.4687 85.5844 61.3214 91.4296C58.1294 97.3578 53.3567 100.629 46.8369 100.629C43.3898 100.629 40.2945 99.7881 37.8749 98.0359C35.4621 96.2886 33.6814 93.6068 32.9027 89.8449L32.8201 89.4462H32.413H2.28313H1.73277L1.78543 89.9941C3.89313 111.924 21.093 129.5 46.8369 129.5C62.1351 129.5 74.8233 123.15 83.6738 111.627C92.5142 100.117 97.5 83.4833 97.5 62.9355ZM63.4854 44.0185V44.0186C63.6417 53.9197 56.4653 61.5753 47.3177 61.5753C37.8661 61.5753 31.3069 54.107 31.1501 44.003C30.9936 33.9264 37.8528 26.4462 47.3177 26.4462C56.4548 26.4462 63.3286 33.9212 63.4854 44.0185Z" fill="black" stroke="white"/>
</g>
<defs>
<clipPath id="clip0_90_5095">
<rect width="70" height="130" fill="white"/>
</clipPath>
</defs>
</svg>
