<svg width="70" height="130" viewBox="0 0 70 130" fill="none" xmlns="http://www.w3.org/2000/svg">
<g clip-path="url(#clip0_90_5096)">
<path d="M42.0199 2.72043V2.22043H41.5199H21.4312H21.2365L21.0931 2.35207L0.661902 21.1048L0.5 21.2534V21.4731V49.5161V50.6425L1.33538 49.887L19.2191 33.7134V127.28V127.78H19.7191H41.5199H42.0199V127.28V106.16C42.9594 108.446 43.9929 110.573 45.1168 112.539C51.4246 123.569 60.5931 129.5 71.9316 129.5C83.2686 129.5 92.4376 123.614 98.7461 112.603C105.042 101.616 108.5 85.518 108.5 65C108.5 44.5677 105.041 28.4698 98.7464 17.4615C92.4386 6.43083 83.27 0.5 71.9316 0.5C60.5945 0.5 51.4255 6.38639 45.117 17.3966C43.993 19.3582 42.9595 21.4827 42.0199 23.7663V2.72043ZM85.0143 65C85.0143 78.2248 83.6167 87.5271 81.2539 93.5265C78.8948 99.5164 75.6334 102.093 71.9316 102.177C68.2297 102.093 64.9683 99.5164 62.6092 93.5265C60.2465 87.5273 58.8489 78.2254 58.8488 65.0013C58.9059 52.1218 60.3029 42.7735 62.6535 36.6634C65.0082 30.5426 68.2478 27.8226 71.9316 27.8226C75.6168 27.8226 78.8845 30.5447 81.2528 36.6643C83.6172 42.7736 85.0143 52.1213 85.0143 65Z" fill="black" stroke="white"/>
</g>
<defs>
<clipPath id="clip0_90_5096">
<rect width="70" height="130" fill="white"/>
</clipPath>
</defs>
</svg>
