<svg width="70" height="130" viewBox="0 0 70 130" fill="none" xmlns="http://www.w3.org/2000/svg">
<g clip-path="url(#clip0_90_5102)">
<path d="M0.5 93.5591C0.5 103.817 5.91282 112.817 14.9306 119.235C23.9441 125.65 36.5713 129.5 51.0829 129.5C65.5946 129.5 78.1808 125.65 87.1532 119.235C96.1302 112.816 101.5 103.815 101.5 93.5591C101.5 77.9324 89.0705 65.4553 73.8051 62.8549V62.6618C87.0933 60.0577 97.0224 48.7644 97.0224 34.7204C97.0224 14.8756 77.4132 0.5 51.0829 0.5C24.7553 0.5 4.97761 14.8736 4.97761 34.7204C4.97761 48.7631 14.7437 60.0599 28.1949 62.6627V62.8542C12.7665 65.4533 0.5 77.9331 0.5 93.5591ZM67.1667 89.7742C67.1667 98.4132 60.4575 104.758 51.0829 104.758C41.7084 104.758 34.9992 98.4132 34.9992 89.7742C34.9992 81.1423 41.7007 74.9624 51.0829 74.9624C60.4651 74.9624 67.1667 81.1423 67.1667 89.7742ZM65.1766 38.5054C65.1766 46.3015 59.2785 52.1129 51.0829 52.1129C42.8874 52.1129 36.9892 46.3015 36.9892 38.5054C36.9892 30.7252 42.8706 25.2419 51.0829 25.2419C59.2909 25.2419 65.1766 30.8933 65.1766 38.5054Z" fill="black" stroke="white"/>
</g>
<defs>
<clipPath id="clip0_90_5102">
<rect width="70" height="130" fill="white"/>
</clipPath>
</defs>
</svg>
