<svg width="70" height="130" viewBox="0 0 70 130" fill="none" xmlns="http://www.w3.org/2000/svg">
<g clip-path="url(#clip0_90_5101)">
<path d="M2 89.2742H1.49644L1.50001 89.7777C1.66497 113.015 21.6308 129.5 49.4315 129.5C78.1674 129.5 98.5 113.906 98.5 91.6667C98.5 83.9021 96.0673 77.2332 91.2329 72.2227C86.478 67.2947 79.4426 64.0151 70.236 62.8377V62.6915C84.0288 60.9635 94.1142 51.2069 94.1142 37.129C94.1142 15.9531 75.7694 0.5 49.7563 0.5C23.2423 0.5 4.10148 16.6519 3.93656 39.534L3.93293 40.0376H4.43655H34H34.4896L34.4999 39.5481C34.6552 32.1451 40.8597 26.7903 49.7563 26.7903C53.7916 26.7903 57.198 28.0883 59.5701 30.2711C61.9382 32.4504 63.3042 35.5367 63.226 39.1828L63.2258 39.1933L63.226 39.2038C63.3039 43.0009 61.7118 46.2104 58.9038 48.4823C56.0872 50.7611 52.0231 52.1129 47.1574 52.1129H35.2995H34.7995V52.6129V75.3226V75.8226H35.2995H47.1574C52.5166 75.8226 56.9516 77.2208 60.0336 79.5495C63.107 81.8716 64.8503 85.1266 64.8503 88.914C64.8503 96.4866 58.6467 102.005 49.5939 102.005C40.3328 102.005 33.842 96.7899 33.6877 89.7632L33.677 89.2742H33.1878H2Z" fill="black" stroke="white"/>
</g>
<defs>
<clipPath id="clip0_90_5101">
<rect width="70" height="130" fill="white"/>
</clipPath>
</defs>
</svg>
