<svg width="50" height="96" viewBox="0 0 50 96" fill="none" xmlns="http://www.w3.org/2000/svg">
<g clip-path="url(#clip0_92_4610)">
<path d="M1 64.6117H0.496414L0.500013 65.1153C0.62291 82.3136 15.1332 94.5 35.199 94.5C45.8441 94.5 54.6743 91.0741 60.8469 85.1918C67.021 79.3081 70.5 71.0006 70.5 61.3106C70.5 43.5886 58.7535 31.0354 42.7853 31.0354C34.5222 31.0354 27.57 34.5511 24.3697 39.6695L26.0236 20.7589H64.5812H65.0812V20.2589V1V0.5H64.5812H6.65969H6.1927L6.16085 0.9659L2.42787 55.5749L2.39136 56.109H2.9267H23.2775H23.5935L23.7291 55.8236C24.7818 53.6083 26.2008 51.8516 28.0625 50.6612C29.9227 49.4718 32.26 48.8252 35.1884 48.8868V48.8869H35.199C38.8093 48.8869 41.8637 50.171 44.0023 52.4362C46.1419 54.7027 47.4016 57.9909 47.343 62.0636L47.3429 62.071L47.343 62.0783C47.4015 66.0205 46.1441 69.2784 44.0023 71.5471C41.8616 73.8146 38.8059 75.1281 35.199 75.1281C29.024 75.1281 24.0058 71.2286 23.7771 65.0931L23.7592 64.6117H23.2775H1Z" fill="black" stroke="white"/>
</g>
<defs>
<clipPath id="clip0_92_4610">
<rect width="50" height="96" fill="white"/>
</clipPath>
</defs>
</svg>
