<svg width="50" height="96" viewBox="0 0 50 96" fill="none" xmlns="http://www.w3.org/2000/svg">
<g clip-path="url(#clip0_92_4611)">
<path d="M71.5 46.4839V46.4821C71.4413 29.9136 67.1836 18.4067 60.4275 11.0381C53.6672 3.66489 44.4648 0.5 34.6565 0.5C24.5555 0.5 15.9821 3.79052 9.94511 9.57791C3.90589 15.3675 0.441573 23.6213 0.500746 33.4734L0.500749 33.4739C0.559882 41.9129 3.19204 49.2365 7.78293 54.4578C12.3786 59.6846 18.9144 62.7769 26.71 62.7769C36.2008 62.7769 44.7708 58.1302 48.3968 50.022C48.2377 57.2977 47.0754 63.212 44.8644 67.3476C42.556 71.6655 39.1177 74.0323 34.4228 74.0323C31.9313 74.0323 29.7045 73.4202 27.9687 72.1542C26.2394 70.8929 24.9572 68.9538 24.3951 66.2192L24.313 65.8199H23.9053H1.93562H1.38563L1.43788 66.3674C2.98088 82.5363 15.5772 95.5 34.4228 95.5C45.6206 95.5 54.9125 90.8168 61.3914 82.3214C67.8601 73.8394 71.5 61.5928 71.5 46.4839ZM46.4269 32.5937V32.5939C46.5399 39.8023 41.3567 45.3521 34.7733 45.3521C27.9725 45.3521 23.2334 39.9438 23.1198 32.5783C23.0067 25.2401 27.9594 19.8199 34.7733 19.8199C41.3464 19.8199 46.3134 25.2349 46.4269 32.5937Z" fill="black" stroke="white"/>
</g>
<defs>
<clipPath id="clip0_92_4611">
<rect width="50" height="96" fill="white"/>
</clipPath>
</defs>
</svg>
