<svg width="50" height="96" viewBox="0 0 50 96" fill="none" xmlns="http://www.w3.org/2000/svg">
<g clip-path="url(#clip0_92_4614)">
<path d="M1.97518 94V94.5H2.47518H65H65.5V94V74.6144V74.1144H65H33.2596L41.1719 66.4899C41.1728 66.4892 41.1736 66.4884 41.1744 66.4876C59.6845 49.1161 64.5922 39.9931 64.5922 29.1281C64.5922 20.509 61.4197 13.3359 55.757 8.32283C50.1001 3.31508 42.0014 0.5 32.2057 0.5C22.6823 0.5 14.7463 3.48048 9.18906 8.92609C3.63042 14.373 0.5 22.239 0.5 31.9155V32.4155H1H21.539H22.039V31.9155C22.039 28.0765 23.0919 25.1344 24.8618 23.1582C26.6266 21.1877 29.1503 20.1253 32.2057 20.1253C35.2633 20.1253 37.8516 21.1898 39.676 23.0771C41.5011 24.9651 42.5993 27.7159 42.5993 31.1553C42.5993 37.5048 38.9105 41.6761 32.6564 47.6436C32.6559 47.6441 32.6553 47.6446 32.6548 47.6451L2.13309 76.277L1.97518 76.4252V76.6417V94Z" fill="black" stroke="white"/>
</g>
<defs>
<clipPath id="clip0_92_4614">
<rect width="50" height="96" fill="white"/>
</clipPath>
</defs>
</svg>
