<svg width="50" height="96" viewBox="0 0 50 96" fill="none" xmlns="http://www.w3.org/2000/svg">
<g clip-path="url(#clip0_92_4615)">
<path d="M0.5 68.9731C0.5 84.1571 15.728 95.5 36.058 95.5C56.3905 95.5 71.5 84.1553 71.5 68.9731C71.5 57.5465 62.9149 48.3881 52.2905 46.3497C61.5249 44.3084 68.3657 36.017 68.3657 25.7634C68.3657 11.1012 54.5521 0.5 36.058 0.5C17.5666 0.5 3.63433 11.0991 3.63433 25.7634C3.63433 36.0141 10.3611 44.3081 19.7029 46.3497C8.97061 48.3888 0.5 57.549 0.5 68.9731ZM47.1667 66.1936C47.1667 72.4783 42.524 77.0645 36.058 77.0645C29.5921 77.0645 24.9494 72.4783 24.9494 66.1936C24.9494 59.9161 29.5846 55.4489 36.058 55.4489C42.5315 55.4489 47.1667 59.9161 47.1667 66.1936ZM45.7736 28.543C45.7736 34.2138 41.6936 38.4032 36.058 38.4032C30.4225 38.4032 26.3425 34.2138 26.3425 28.543C26.3425 22.8886 30.4061 18.9355 36.058 18.9355C41.7058 18.9355 45.7736 23.0108 45.7736 28.543Z" fill="black" stroke="white"/>
</g>
<defs>
<clipPath id="clip0_92_4615">
<rect width="50" height="96" fill="white"/>
</clipPath>
</defs>
</svg>
