<svg width="50" height="96" viewBox="0 0 50 96" fill="none" xmlns="http://www.w3.org/2000/svg">
<g clip-path="url(#clip0_92_4607)">
<path d="M30.4497 2.26344V1.76344H29.9497H16.093H15.8892L15.7435 1.90583L1.65055 15.6773L1.5 15.8245V16.0349V36.629V37.8046L2.3468 36.9892L14.412 25.3723V93.7366V94.2366H14.912H29.9497H30.4497V93.7366V80.8908C30.7809 81.6074 31.1255 82.299 31.4835 82.9654C35.8496 91.0944 42.2187 95.5 50.1208 95.5C58.0215 95.5 64.391 91.1275 68.7579 83.0132C73.1137 74.9197 75.5 63.0762 75.5 48C75.5 32.9866 73.1136 21.1435 68.7581 13.0346C64.392 4.90565 58.0229 0.5 50.1208 0.5C42.2201 0.5 35.8506 4.87252 31.4837 12.9868C31.1256 13.6521 30.7809 14.3427 30.4497 15.0583V2.26344ZM58.9899 48C58.9899 57.7077 58.0258 64.5235 56.4031 68.9102C54.7803 73.2969 52.566 75.1077 50.1208 75.1692C47.6756 75.1077 45.4613 73.2969 43.8385 68.9102C42.2158 64.5237 41.2518 57.7082 41.2517 48.0012C41.2911 38.5474 42.2546 31.6972 43.8693 27.2284C45.4923 22.7368 47.6943 20.8306 50.1208 20.8306C52.5488 20.8306 54.7699 22.739 56.4021 27.2293C58.0263 31.6973 58.9899 38.5469 58.9899 48Z" fill="black" stroke="white"/>
</g>
<defs>
<clipPath id="clip0_92_4607">
<rect width="50" height="96" fill="white"/>
</clipPath>
</defs>
</svg>
