<svg width="50" height="96" viewBox="0 0 50 96" fill="none" xmlns="http://www.w3.org/2000/svg">
<g clip-path="url(#clip0_92_4609)">
<path d="M0.500605 49.1351L0.500604 49.1353C0.441892 65.8932 4.66933 77.4963 11.4409 84.9137C18.2166 92.3357 27.4784 95.5 37.3442 95.5C47.3877 95.5 55.9319 92.2089 61.9685 86.4058C68.007 80.6009 71.5 72.3168 71.5 62.4032C71.5 53.8997 68.8678 46.5122 64.2626 41.2432C59.6528 35.969 53.0876 32.8441 45.2907 32.8441C35.8754 32.8441 27.3783 37.5303 23.5992 45.4016C23.7258 38.3996 24.8609 32.6534 27.0475 28.607C29.3543 24.3382 32.821 21.9677 37.5779 21.9677C40.0694 21.9677 42.3 22.5799 44.0389 23.8034C45.771 25.0222 47.0479 26.8697 47.6071 29.4086L47.6935 29.8011H48.0954H69.9483H70.4954L70.4462 29.2561C69.0207 13.4587 56.3012 0.5 37.5779 0.5C26.3799 0.5 17.1176 5.18327 10.6535 13.6306C4.19967 22.0646 0.559326 34.2157 0.500605 49.1351ZM48.8808 63.2876C48.8808 70.7658 43.9178 76.1801 37.2273 76.1801C30.5369 76.1801 25.5738 70.7658 25.5738 63.2876C25.5738 55.6799 30.5398 50.2688 37.2273 50.2688C44.0287 50.2688 48.8808 55.6766 48.8808 63.2876Z" fill="black" stroke="white"/>
</g>
<defs>
<clipPath id="clip0_92_4609">
<rect width="50" height="96" fill="white"/>
</clipPath>
</defs>
</svg>
