<svg width="50" height="96" viewBox="0 0 50 96" fill="none" xmlns="http://www.w3.org/2000/svg">
<g clip-path="url(#clip0_92_4613)">
<path d="M1 65.6936H0.496362L0.500013 66.1972C0.62448 83.365 15.6871 95.5 36.5736 95.5C47.3783 95.5 56.5975 92.6354 63.1285 87.7079C69.6679 82.7742 73.5 75.7778 73.5 67.5833C73.5 61.8493 71.6643 56.9157 68.011 53.2082C64.5219 49.6674 59.4153 47.2856 52.7784 46.3579C62.8669 44.888 70.2107 37.7586 70.2107 27.5323C70.2107 11.8772 56.3628 0.5 36.8173 0.5C16.8923 0.5 2.45185 12.3931 2.32742 29.2974L2.32372 29.8011H2.82741H25H25.4894L25.4999 29.3118C25.6143 23.9738 30.1844 20.0726 36.8173 20.0726C39.8199 20.0726 42.3443 21.0182 44.0968 22.5973C45.8445 24.1721 46.8523 26.4005 46.7945 29.0374L46.7943 29.0481L46.7945 29.0589C46.852 31.8006 45.6798 34.1183 43.6032 35.7633C41.5174 37.4157 38.4975 38.4032 34.868 38.4032H25.9746H25.4746V38.9032V55.5806V56.0806H25.9746H34.868C38.8691 56.0806 42.1685 57.103 44.4539 58.7938C46.7303 60.4779 48.0127 62.8299 48.0127 65.5618C48.0127 71.0233 43.444 75.043 36.6954 75.043C29.7792 75.043 25.0041 71.236 24.8907 66.1823L24.8798 65.6936H24.3909H1Z" fill="black" stroke="white"/>
</g>
<defs>
<clipPath id="clip0_92_4613">
<rect width="50" height="96" fill="white"/>
</clipPath>
</defs>
</svg>
